<svg xmlns="http://www.w3.org/2000/svg" width="1440" height="250" fill="none">
  <g transform="matrix(1.0028 0 0 1 -2.248 -.447)" filter="url(#a)">
    <path d="M1455.19 466.056c0 11.187-9.095 20.02-20.324 20.02H12.222C.998 486.076-8.1 477.008-8.1 465.82V70.393c0-7.234 3.842-13.869 10.395-16.977 49.38-23.421 272.323-110.817 618.759 24.816 386.078 151.152 627.04 6.636 821.14-69.727 7.835-3.084 12.997-6.018 12.997 2.38z" fill="#fff" paint-order="fill markers stroke"/>
  </g>
  <g clip-path="url(#b)" transform="matrix(1.0028 0 0 1 -3.017 -41.646)" fill="#dadae8">
    <path d="M325.175 122.587c-.548-.81-.195-3.579-1.743-2.554-.523 1.076.11 3.62 1.357 3.277.13-.24.184-.525.386-.723zm-.355-2.312c.012.136-.088-.093 0 0zm-1.311.272c.074-.194.08.203 0 0z"/>
    <path d="M396.354 91c1.314 4.042.228 9.55-4.153 11.182-3 1.38-6.257 2.157-9.541 2.433.587-3.21 2.287-6.268 2.095-9.595.672-1.077.602-3.41-.25-1.226-1.237 1.936-.967 4.499-2.352 6.562-.573 2.864-.179 5.49-3.952 5.83-1.888-.16-6.433 2.646-4.732-1.019.689-1.946 1.14-5.432.77-6.657-1.214 1.537-1.382 4.366-2.357 6.756.611 3.569-3.322 3.922-5.8 4.613-2.269 1.187-2.812.106-1.801-2.331.588-1.854.684-4.605.653-6.077-1.47 2.608-2.168 5.668-2.536 8.724-1.264 1.942-4.377 1.932-6.678 3.389-3.538 1.652-.382-3.715-.177-5.37-.315-1.947 1.163-4.654.537-6.028-1.736 2.852-1.644 6.15-3.204 9.237.004 2.563-.71 4.182-3.271 4.817-.997.993-5.032 3.029-2.989.236.296-1.168 1.476-4.75.438-4.792-1.246 2.096-2.09 4.405-2.911 7.031-.284 1.476-4.205 2.646-2.214.186.86-2.609 1.648-6.387 1.376-8.472-1.812 2.18-1.295 5.075-2.755 7.438.322 3.155-1.722 5.148-4.374 6.43-.916.924-3.736 3.2-2.307.55.394-3.132-.357-6.581-3.19-8.383-1.77-1.437-5.127-2.22-6.723-2.106 4.607.22 9.568 3.766 9.409 8.753.187 3.467-2.486 6.277-5.527 7.47-2.95.408-6.466-.568-7.838-3.464M368.663 136.395c3.43-1.195 7.854-2.405 8.952-6.369 1.025-2.923-.37-6.213-2.237-8.498-4.12-4.878-11.559-5.52-17.21-3.252-2.52 1.052-4.935 2.264-6.217 4.822-1.747 2.598-.209 5.655 1.212 7.968 1.89 2.309 4.391 4.31 7.41 4.839 2.597.91 5.397 1.034 8.09.49zm-12.616-2.803l-.109-.062zm.259.177c.277-.354.12.799 0 0zm.041-1.537c.17-.21.143.395 0 0zm11.716 2.693c-2.413-.006-4.84.442-7.187-.386-2.474-.296-4.249-1.823-5.727-3.246-2.233-2.067-3.709-5.522-2.054-8.379.804-2.993 4.825-3.774 7.42-4.77 2.663-.464 5.594-.413 8.187.534 2.823.675 5.339 2.616 6.822 5.1 1.013 2.273 1.904 5.313-.154 7.308-1.901 2.268-4.738 2.841-7.307 3.839zM394.06 148.978c-2.323.604-4.933 2.614-7.179 1.919-1.65-1.671-3.02-4.202-2.948-6.54 1.759-1.826 4.646-2.287 6.857-3.624 1.044-.197 3.834-1.319 1.421-1.887-2.936 1.168-5.877 2.437-8.827 3.6-3.483 1.906.379 5.548 1.282 7.932 1.61 3.487 5.257 1.497 7.553.007 1.48-.284 5.12-2.828 1.94-1.486zm-5.243-7.169c.29-.009-.19.151 0 0zm-.696-1.102l-.054.04zm-.164.109c.358.163-.318.087 0 0zM381.976 118.955c.168 1.888 1.191 3.755 2.907 4.622 1.77.303 3.843-.34 5.115-1.614 1.042-1.322 1.398-3.479.128-4.783-.923-1.125-2.451-2.229-3.978-1.738-.86-.482-3.013.93-1.085.667 1.5-.422 3.205-.046 3.913 1.49 1.138 1.225.846 3.712-1.015 3.976-1.463.84-3.396.547-4.176-1.02-.848-1.254-.091-2.634.46-3.845-.773-1.37-2.429 1.128-1.818 2.09-.181-.1-.697-.31-.451.155zm1.762.803c-.096.141-.08-.19 0 0zm-1.106.53c-.005.288-.234-.148 0 0z"/>
    <path d="M367.325 138.286c-.328-.812-.577-1.961-.892-.317-.232 2.286-.336 4.579-.876 6.818.011 1.348.199 5.56-1.978 3.332-.987-1.764-4.39-1.466-4.288-3.793.267-2.175.48-4.225.906-6.407.682-1.108-.334-2.538-1.034-.96-.324 1.804-.48 3.073-.902 4.829-.108 1.722-1.652 4.266.6 5.188 1.94.629 3.414 2.062 5.145 3.056 2.19 1.019 2.896-1.818 2.767-3.432.108-1.714-.384-3.49.115-5.197.165-.996-.711-2.491.437-3.117zm-8.752 3.332c.01-.276.257.168 0 0zM391.971 125.512c-2.4-.744-4.143 1.274-5.722 2.614-1.548 2.08-3.11 4.223-5.815 4.81-2.071 1.078-5.577 3.289-3.87 5.994 2.341 2.294 5.137-1.198 7.575-1.747 3.054-.7 6.543-1.256 8.457-4.072 1.275-1.485 1.487-5.457.545-5.92.086 2.603-.244 5.866-3.004 7.027-2.89 1.433-6.412 1.019-9.072 3.016-1.61 1.788-4.717.542-2.234-1.416 1.923-1.723 4.847-1.845 6.241-4.223 1.95-1.521 2.664-4.633 5.515-4.953.685.348 2.484-.36 1.384-1.13zm-6.745 4.285c.085-.333.263.266 0 0zm.219-.258l.04-.067zm1.215.462c.243.038-.163.183 0 0zM349.152 137.837c2.306-.295 3.517-3.611 1.463-5.039-1.453-1.21-3.846-1.08-4.694-3.025-.74-1.74-2.535-4.264-4.67-2.823-.327.65 1.912-.396 2.444.557 1.025 1.433 1.256 3.332 2.731 4.533 1.012 1.243 3.643.803 3.824 2.828-.587 2.392-4.08 1.529-5.337.078-1.57-1.141-2.874-2.216-3.646-4.008-.358-.938.145-3.84-1.421-1.852-.427 1.776.923 2.822 1.325 4.295 1.383 1.403 2.79 2.853 4.438 3.946 1.076.656 2.415.465 3.543.51zm-7.292-4c-.231-.148.273-.112 0 0zm.656-1.156c.05-.208.139.14 0 0zM361.044 123.281c-.353-1.552-2.327-1.158-2.866-.034-.465 1.746 2.205 1.88 2.72.47l.088-.212zm-2.034.34c.03-.198.165.102 0 0zm.355-.354l-.007.023zm.027-.054c.065.13-.158-.01 0 0zm-.068.109c-.138-.093.16-.028 0 0zm-.055.149c.107-.011-.05.068 0 0zm-.013.041c-.004.135-.095-.11 0 0zm0 0c-.001.092-.064-.073 0 0zm.205-.122l.054.024zm.013 0l.05.004zm-.027 0l.05-.025zm.095-.313c-.057.095-.039.065 0 0zm-.013.204c.035.166-.145-.098 0 0zm-.164.068c-.063-.1.117.03 0 0zm.014-.422c.118.156-.196.106 0 0zm-.137.3l-.021-.046zm-.478.448c.09-.94.892-.073 0 0zm.123.164l.044-.039zm.574-.436l.056.035zM368.117 122.669c-.315-.693-1.318-1.28-1.607-.613-1.444-.78-1.23 2.213.223 1.75.637-.102.926-.764 1.384-1.137zm-2.416.122c.109-.016.067-.01 0 0zm.778-.558c-.144-.059.162-.053 0 0zm-.068.49l.047.003zm.45-.558c.057.222-.257-.128 0 0zm.041.218l-.002-.003zm-.123-.013l.055.022zm.055.231l-.077-.08zm-.15-.218c.21-.084-.024.21 0 0zm.259.163c-.164.116-.005-.186 0 0zm-.205-.176c.126-.128.036.166 0 0zm.041-.028c.058-.163.13.136 0 0zM363.803 130.096l-.069.164c0-.014.014-.041.028-.055 0-.014.013-.041.082-.204 0 .014-.028.054-.041.095zm.491-1.156c0 .014-.068.15-.082.177l.014-.027c-.027.054-.055.136-.041.108l.041-.108-.041.108a.219.219 0 01.041-.081l.027-.055c0-.013.041-.108.041-.122z"/>
    <path d="M366.602 128.477c-.503-1.337-2.29-.426-2.276.628-1.068 1.16 1.102 2.028 1.639.741.331-.388.527-.875.637-1.369zm-2.13 1.81c-.123-.164.235.013 0 0zm.86-1.837l.017-.065zm-.014.041c-.159.025.075-.133 0 0zm-.041-.041c-.17-.071.245-.123 0 0zm-.027.095c.081-.06-.025.092 0 0zm.055.232c-.402.206-.104-.204 0 0zm.068-.109c.002-.12.067.063 0 0zm0 .014c-.053.127-.034-.124 0 0zm-.314-.123c.185-.072-.097.186 0 0zm.177.082c-.033.262-.156-.122 0 0zm.028-.055c-.113.003.084-.086 0 0zm-.123-.027c.186.064-.21.126 0 0zm.286.15c-.022.35-.177-.157 0 0zm-.546-.517c.258-.042-.041.24 0 0zm.437.694c-.335 0-.179-.453 0 0zm-.205-.177c.242-.108.186.609 0 0zm.246-.136c.265-.107.052.47 0 0zm-1.638 1.714c.106-.032-.106-.048 0 0zM401.734 138.013c-.355-.655-1.53-1.116-1.639-.06-.405.825.61 1.192 1.066.536.262-.02.36-.625.573-.476zm-.86.409c-.099.045.035-.099 0 0zm.095-.014c.091.002.008.322 0 0zm.055-.041c.105.031-.119.057 0 0zm.068-.027c-.066.058.017-.082 0 0zm-.013-.068l-.02-.036zM405.148 144.475c.12-.878-1.225-1.348-1.74-.668-.405.44.027 1.19.602 1.119.429.006.782-.252 1.138-.451zm-.956.123c.022-.315.039.101 0 0zm-.533-.558c-.054.07.005-.058 0 0zm.069-.286c-.128.101-.015-.12 0 0zm-.028-.231c.199-.074-.088.077 0 0zm.137.163c.203.053-.06.034 0 0zm.041.041c-.038-.074.064.042 0 0zm-.069.041c.091-.26.192.196 0 0zm-.068-.028c-.14.02.095.036 0 0zm.178-.217c.13-.188.1.202 0 0zm.027.068c.096-.038-.046.064 0 0zm-.205.013c.053-.119.014.068 0 0zm-.232.218c.157-.028-.088.06 0 0zm.259.844c-.154 0 .101-.049 0 0zm.287.204c-.085.066.033-.087 0 0zm.178.054c-.201.022.1-.148 0 0zm-.028-.163c.191-.196.02.176 0 0zm.11-.136c.136-.142.013.13 0 0zM344.591 158.527c-.461 1.79 3.013 3.494 3.125 1.384-1.986.891-1.902-2.172-1.567-3.397-.051-.987.702-4.006-.989-3.345-.35 1.744-.805 3.58-.569 5.358zm.546-3.836c-.109.165-.078-.178 0 0zM380.365 172.049c.16 1.362 1.974 1.479 3.043 1.271 1.257-.365 1.545-1.92 1.85-2.935-1.34-.383-1.466 2.059-2.783 1.403-.592.509-1.907-.78-2.11.261zm1.011.748c-.044.111-.03.074 0 0zM396.436 156.841c-7.642-.948-15.041-3.209-22.566-4.767-3.035-2.068-3.438 1.075-.171 1.097 9.812 2.61 19.874 6.154 30.165 4.587 2.934-.649 7.221-.575 9.234-2.236-4.99 1.132-10.212 1.205-15.349 1.362a21.948 21.948 0 01-1.313-.043zm-18.46-2.775l-.082-.014zm.191.04c.092-.377.194.412 0 0zM353.917 143.686c-.06-1.283-1.554-1.258-2.27-1.807-.456-.895-1.47-1.455-2.457-1.387-1.241.84.984 1.706 1.53 2.338.752.879 1.914.218 2.79.682.102.345.513-.363.407.174zm-3.577-3.129c.009.104-.102-.049 0 0zm-.792 1.075c-.08-.166.19.035 0 0z"/>
  </g>
  <g clip-path="url(#c)" transform="matrix(1.0028 0 0 1 -3.017 -41.646)" fill="#dadae8">
    <path d="M1232.66 242.098c-.719-3.219-2.16-6.63-5.38-8.035-2.516-.919-5.25-1.798-7.938-1.198-2.34.217-3.679 2.538-5.741 1.455-1.583-.416-4.743 1.199-3.575-1.843.433-2.54.21-5.144.91-7.667.191-2.195-3.21-.081-4.564.084-2.964 1.419-3.074 5.033-2.455 7.83.406 2.044 1.12 4.64-1.837 4.754-1.848 1.596-4.534 2.495-5.433 5.026-.737 2.606-4.803 1.92-5.359 4.797-.338 1.867-.037 3.546.19 5.124 1.841 3.98 3.87 7.888 6.115 11.658 2.424 3.947 4.378 8.164 6.594 12.227 1.638 3.003 3.366 6.93 7.197 7.432 3.037-.172 5.907-2.404 8.973-.716 2.904 1.125 5.22-.955 5.833-3.645 1.904-3.185 6.557-.523 8.27-3.802 2.097-3.49.569-7.635.69-11.43.689-1.206-.344-3.728-.357-3.647-.51-4.025-.914-8.047-1.403-12.071-.33-2.036-.795-4.304-.73-6.333zm-22.22-6.813c.233.073-.112.155 0 0zm0 .111l-.01.014zm-.65-.545c-.47-.075.259-.228 0 0zm-4.26 1.262c-.407-2.77-1.032-5.727-.348-8.47.884-1.66 5.774-4.097 4.355-.52-.354 3.554-.428 7.116-.727 10.668 0 1.526.25 5.788-2.117 4.62-.348-2.294-1.003-4.015-1.163-6.298zm1.2 6.908l.02-.016zm-2.15-5.966c-.162-.304.235-.196 0 0zm1.59 6.527c-.227-.214.425-.251 0 0zm-.85-7.434l.02.072zm-.04-.321c.245.264-.383.067 0 0zm-.68.768c-.072.253-.107-.31 0 0zm-7.08 6.126c-.136.124-.133-.268 0 0zm-.03.076l-.01.024zm-.52.56c1.622-1.659 3.314-3.314 5.187-4.797 1.158-1.455 3.219-1.673 2.976.77.52 2.25 1.268 5.53-1.533 6.61-1.956-1.007-4.244-1.63-6.378-2.42zm7.5 4.644c.142-.249.127.239 0 0zm.1.128v.044zm-7.32-4.271c-.568-.078.214-.094 0 0zm-.2-.014l.107.028zm-2.96 11.423l.04.04zm.14.184l-.118-.088zm-.14-.052c.516.618.01-.233 0 0zm.71 1.471l-.09-.042zm-.04-.066l-.07-.028zm-.1-.063l.077.03zm-.52-1.024c.693-.029.141.233 0 0zm.02.161l.088.043zm.02.062l.087.042zm.02.171l-.01-.031zm.96 3.187c-.66-.68.097-.417 0 0zm-.45-2.436c.513.087.137 1.052 0 0zm.34.172c-.58-.184.135-.393 0 0zm4.59 8.071l-.01-.018zm3.36 6.099c-.188.117-.336-.3 0 0zm-.12.064l.128.065zm-.25 1.993l.01.021zm.01.086l.02.007zm2.45 1.614c.247.114.154.071 0 0zm3.09 5.382c.396-.096.058.208 0 0zm-.05-.074c-.25-.15-.198-.12 0 0zm6 1.702c.304-.2-.028.197 0 0zm2.94-.964c.352.09.496.127 0 0zm14.33-41.096c.522 2.603.462 5.414 1.207 7.9-.435 1.803.436 4.279.236 6.36.753 1.31.365 5.034.72 5.01-.01-.258.2 3.356.356 4.525.33 3.807 1.496 8.036-.513 11.57-1.334 1.817-4.618 1.143-6.143 1.546-2.215 1.17-2.104 4.311-4.524 5.128-1.752.264-3.933-.626-5.43-1.233.704-1.359 1.19-4.15.707-4.873-2.013 1.296-.407 5.068-3.1 5.805-1.996.056.794-3.194.627-4.507-.176-1.192.59-3.377.114-3.966-.888 1.972-1.027 4.12-1.93 6.14.376 2.845-2.156 4.348-4.295 2.27-.808-1.472 1.258-3.873.8-5.723-1.666.283-1.356 5.62-2.836 3.308-2.14-1.91-1.306-4.27-.351-6.43.737-2.257-1.087-.761-1.203.6-.739.782-.878 2.335-1.671.514-1.229-1.197 1.423-4.574-.13-4.542-.553.67-1.044 2.893-1.68.877-.424-1.68.938-2.764.978-5.055.39-1.72-.28-2.233-1.115-.497.42 1.44-.98 2.298-.787 3.851-1.94-1.667-1.04-3.87.131-5.652.531-1.411 1.272-5.36-.264-2.684-.659 1.084-1.032 4.28-2.17 4.175-1.372-1.318-2.31-2.877-.972-4.08.915-1.966 1.268-4.35 1.414-6.133-1.416 1.5-1.98 3.939-2.345 6.154-.613 1.363-1.688-2.265-1.293-1.62-2.098-2.083.44-4.316.366-6.596-1.504-.333-1.715 4.721-3.044 1.91-1.353-2.533-2.297-6.428.646-8.26 3.102-1.918 6.81-.321 9.64 1.33.73 1.228-.738 4.28.922 4.868.55-2.162-.35-4.931 1.54-6.773 1.763-2.19 4.722-1.86 7.21-1.786 2.229-.121 4.864.398 6.731-1.031-2.402.761-4.776.214-7.212.061-2.248.309-4.894.356-3.548-2.7-.372-2.457.533-5.03 3.38-4.266 1.14-.295 3.95-.942 1.999.945-1.038.572-1.467 3.701-.596 1.275 1.46-2.583 4.094-4.67 7.195-4.474 2.96.15 5.98.903 8.09 3.108 1.09.94 1.957 2.199 2.143 3.651zm-14.22 40.447c.18-.174.085.18 0 0zm.1.071v-.01zm-3.08.305l.113.027zm.09.087l.01.021zm-5.37-.344c.183-.172.082.184 0 0zm.1.073v-.01zm-3.22-5.382l.107.033zm.1.084v-.01zm-.92-.351l-.059-.038zm-2.63-6.769c.192-.194.097.196 0 0zm.12.068v-.01zm-2.1-3.423c.207-.157.049.221 0 0zm-.84-.228l-.065-.039zm-1.54-4.638l.113.027zm.1.074l.01.021zm-.95-.21l-.068-.026zm-2.28-3.864c.2-.158.064.205 0 0zm.1.074v-.011zm8.61-7.798l-.058-.05z"/>
    <path d="M1214.59 271.208a36.389 36.389 0 00-3.069-6.619c-.732-2.835-2.491-5.227-3.937-7.725-1.435-.286-.251 1.522.09 2.089.84 1.538 1.522 3.16 2.325 4.72.568 1.18.953 2.434 1.917 3.36.949 1.344 1.511 2.913 2.435 4.273-.105.49.197.079.239-.098zm-5.57-12.324c-.039.153-.14-.192 0 0zm-.89.58l-.01-.029zm.06.118c-.153-.16.245-.016 0 0zM1220.89 249.736c-1.423.18-1.015 1.916-.691 2.845.314.944.52 1.924.528 2.913.609 3.484 1.062 7.02 2.214 10.38.24.959.182 2.006.574 2.916.515-.608.134-1.54.129-2.284-.195-1.961-.416-3.936-1.001-5.826-.064-3.57-1.123-7.01-2-10.44-.028-.188.029-.46.247-.504zm-.34 3.49l-.02-.039zm.03.147c-.076-.174.207.028 0 0zM1212.27 277.643c-1.554.521-1.513 2.673-1.933 3.925 1.371 1.153 1.69-1.683 1.708-2.67.036-.424.09-.85.225-1.255zm-2.03 3.468c.113-.071-.049.136 0 0zm1 .261l-.051-.02z"/>
  </g>
  <g fill="#dadae8">
    <path d="M436.939 183.662c-2.585-1.55 2.469-2.147 3.376-3.151 1.334-.985 3.361-2.071 4.315-2.87-2.316.28-4.388 2.139-6.801 2.89-1.743 1.535-3.833 2.359-5.9.698-.827-.342-3.385-1.137-.963-1.047 3.712-.853 6.98-2.974 10.116-5.028 2.287-1.798 1.756-5.006 1.974-7.569.144-2.498-.201-4.985-.478-7.426-.851-2.254-2.513-3.991-4.136-5.701-1.479-1.496-.461-1.727.98-.79 3.17 1.267 6.536 1.896 9.647 3.31 3.302 1.327 6.775 2.1 10.142 3.229 2.068 1.05 4.502 1.223 6.412 2.623 3.106 1.124 6.137 2.422 9.238 3.526.95 1.52.517 4.298 2.568 5.54 2.297 2.07 6.113 2.032 8.202-.332 2.125-1.69 5.246 2.586 6.786 1.47-1.373-1.527-3.848-1.968-5.722-2.769-2.31-1.379-5.136-2.276-7.704-3.358-2.507-1.017-4.922-2.374-7.522-3.046-3.89-1.425-7.665-3.178-11.64-4.391-4.748-1.69-9.693-2.714-14.425-4.447-2.36-.535-4.584-1.427-6.941-1.992-1.928-.247-2.888-2.609-5.005-2.237"/>
    <path d="M437.504 183.451c-.018-.196-.508-.283-.416.002m1.394.57c.25-.581-.512-.114-.699-.374m3.382.821c1.247-1.074 2.866-1.553 4.212-2.477.864-.977 2.124-1.486 3.017-2.43.29-.297-.407-.055-.584-.043-1.35.322-2.387 1.298-3.533 2.016-1.486.391-2.77 1.304-3.906 2.305-.145.149-.277.314-.451.431"/>
    <path d="M440.807 184.488c.011.059-.24-.497-.063-.15m11.841 3.184c.035-.182-.463-.404-.129-.024m.311.083c-.018.028-.19-.176-.091.027m1.36.27c1.44-1.05 2.964-1.968 4.036-3.338-1.452.3-1.914.371-2.77 1.354-.746.386-2.417.676-2.535 1.645"/>
    <path d="M453.868 187.885c-.232-.129.113-.086.097.026m-.139.015c-.285-.093.075-.177.042.001m3.749 1.001c.969-.876 2.413-1.114 3.096-2.334.598-.282 1.427-1.222.246-.81-.977.288-1.27.537-2.192 1.258-.914.024-1.767.997-2.251 1.498m3.456 1.006c.012-.163-.364-.267-.31-.041"/>
    <path d="M461.45 189.85c.798-1.043 2.292-1.157 3.117-2.197.877-.905 1.867-1.696 2.994-2.254-.276-.638-1.832.639-2.317.753-1.022.114-1.496 1.388-2.541 1.641-.953.31-2.416.97-2.743 1.76M465.747 191.122c.465-.996 1.779-.97 2.455-1.756 1.026-.57 1.531-1.319 2.362-2.008.556-.418 1.825-1 1.904-1.464-1.074.133-2.066.948-3.114 1.312-.762.533-1.66 1.408-2.576 1.791-.947.25-1.719.943-2.537 1.508l-.1.103"/>
    <path d="M465.535 191.065l-.093-.16.133.201m4.666 1.3c2.149-1.756 6.01-3.85 7.124-5.576-3.15 1.38-5.695 3.548-8.775 5.072m6.402 1.597c2.394-1.231 8.402-6.62 2.445-3.023-.771 1.205-3.038 1.327-3.829 2.726m5.695 1.563c2.537-1.62 9.543-6.116 8.74-6.643-3.356 1.986-6.978 3.825-9.907 6.351m6.687 1.653c2.122-1.941 7.224-6.09 1.606-2.688-.907 1.092-2.175 1.56-3.266 2.379m8.494 2.156l-.103-.12.061.119m12.177 3.327c6.586-4.01-3.126-9.983 1.247-15.06 3.434-6.032-4.318-8.88-8.026-9.9-1.174-3.074-6.356-3.778-1.936-1.082 4.328 5.067 2.935 12.832-.337 18.113-.887 1.602-1.965 3.09-3.077 4.543m-60.526-15.914c.06-.19.675-.195.484.129M483.067 169.784c.203.068.102.034 0 0zm-6.562-.966h.062zm-48.241 11.16c.234-.406.362.378 0 0zm14.016-20.367c.235-.076-.06.274 0 0zm-15.542 17.04c1.413 1.822 4.225 2.2 5.944.578 2.344-1.168 2.283-4.974 4.937-5.095 1.982-.994 1.34-3.583 1.79-5.363.396-1.524 1.866-3.1 2.243-4.12.433 2.683-.08 5.415.13 8.1-.418 3.55-3.893 5.48-6.822 6.848-2.583 1.284-5.583 2.45-8.477 1.51"/>
    <path d="M426.526 179.14c-.008-.199.204.014.178-.159-.316-.064-.728.002-1.002-.175m15.754-18.525a.163.163 0 01-.014-.066.236.235 0 01.033.071zm-.069.22c-.01-.003-.017-.015-.027-.018-.007-.012.008-.029.001-.04.014.024.021.036.026.058zm.2 1.068c.006.022-.02.036-.031.043-.014-.024-.016-.056-.021-.078zm-.002.165c-.004-.022-.016-.056-.02-.078.034-.012.068-.023.092.004.006.053-.03.075-.072.074zm.096-1.248c-.038-.01-.04.072-.077.135 0-.04-.015-.097-.031-.154.046-.018.099-.025.108.02zm-.161-.209c-.012-.034-.026-.058-.03-.08a.255.254 0 01.03.08zm-4.645-6.82c-.036-.062-.054-.15-.012-.19l.13.096c-.047.02-.077.052-.118.093zm.262-.863c-.025.015-.059.026-.086.05l-.046-.023.01-.152z"/>
    <path d="M433.737 151.686c2.548-.01 3.331 2.788 4.786 4.32 2.04 1.616 3.554 4.312 2.504 6.92-.557 2.302-3.346 3.86-2.52 6.514 1.243 3.238-4.45 1.436-4.33 4.46-.928 2.38-2.608 4.249-5.032 3.124-.972-.25-2.034-.675-2.505-1.632M499.45 197.217l-.019.027c-.056.285.042-.04.056-.016l-.044.205.044-.164a1.77 1.766 0 01-.033.198c-.006.102.021-.077.02.047a.587.585 0 01-.012.038l.026-.055c-.01.04-.02.15-.022.12.01.115.061-.15.051.002.039-.063.02-.15.055-.317l-.02.378.02-.15s.008.012 0 .082c.016-.099.005-.06.012-.162.015.14.047-.06.045.178.01-.11-.017-.088.006-.175.003.26.022-.045.033.071-.005.134-.02.068-.008.184.008-.225.028.05.051.004a.209.208 0 01.004-.092c-.004.051-.002.082-.004.092.001.031.003.063.003.104a.978.975 0 00.001-.196c.007-.029.031-.002.041-.04.004.062.047.095.083.156l.002.031c-.014-.179.01-.152.02-.19a.944.941 0 01.01.198l.011-.007c-.004-.063-.006-.095.01-.11l.014.137c.025-.014.023-.16.063-.076-.018-.129-.083-.354-.072-.433.015.065.035.184.036.216.003-.01-.003-.063.008-.029l.01.117c.019.046-.015-.098.002-.083.025.1.013.066.034.144-.003.01-.012-.034-.01-.003.017.015.033.071.056.14a.596.594 0 01-.024-.142c.024-.014.032.113.05.16-.013-.067.022-.006-.012-.149.01.002.023.068.035.102-.004-.063.05-.028-.004-.177l-.007-.012.002-.01c-.002-.145.086.065.107-.013l.02.047c.005-.06.031-.043.01-.153 0 0 .038.083.054.14.001-.042-.015-.098.038-.022.018.088.033.071.004.063.033.03.066.101.039-.03.039.124.075.144.067.1l-.053-.076c.006-.019.015-.017.035-.012l.063.152c.13.17-.063-.348.107-.054-.042-.115-.055-.067-.103-.194.026.018.15.216.16.22.064.068-.085-.23-.035-.186a1.841 1.836 0 01-.119-.249c.03.007.14.213.148.257-.002.01-.007-.012-.024-.027.005.022.01.044.046.105l-.027-.059c.039.052.066.028.103.121a.252.251 0 00-.063-.11c.067.06.036-.022.089.013a.718.716 0 01-.06-.088c.073.04-.043-.105-.033-.144.064.07.106.184.095.11.05.043.09.126.11.173-.043-.115.081.042.1.047l.02.047c-.013-.034-.003-.032.006-.029l-.068-.09c.016.014.03.007.047.053-.033-.07-.11-.164-.158-.26.041.042-.013-.065.08.053-.056-.026.09.127.08.166-.006-.022-.006-.022.011-.007l.022.036c.108.102-.093-.159-.058-.17.053.076.1.13.096.108-.012.007-.094-.118-.12-.177.06.047-.016-.056.004-.05l-.027-.018c-.052-.076-.032-.07-.044-.105.038.052.02.046.045.064-.078-.135.128.106.08.011.04.042.1.13.134.16-.054-.108.093.077.056-.016-.081-.084-.064-.069-.121-.167l.018.087-.086-.147c-.012.008.032.081.014.066-.05-.086-.036-.06-.1-.13.123.126-.044-.105.046-.019l.189.227c.113.082-.053-.149.022-.119l-.043-.032c-.08-.094.007-.029-.014-.066.064.07.098.1.138.141-.047-.054.025-.014-.101-.162l.103.08c.058.015-.17-.222-.127-.22.071.08.133.118.166.188.012-.007.032 0-.018-.046.05.045-.074-.113-.007-.053-.033-.03-.105-.11-.085-.106l.033.03c-.033-.03-.035-.062-.122-.126.24.188.03-.075.246.086a.237.236 0 01-.015-.097c.027.017.034.03.024.027.085.033-.208-.19-.116-.145.131.087.054.066.11.092.257.203-.017-.056.152.051l.017.015c.1.057-.076-.104-.042-.115 0 0 .027.017.044.032a.779.779 0 01-.182-.214c.104.08.05.045.157.114-.005-.022-.176-.119-.188-.153.062.037.12.053.234.135l-.005.02c.151.091.008-.03.046-.02l.06.047c.001-.04-.167-.148-.14-.172l-.056-.025c-.156-.114.102.048-.018-.046l.17.097c-.03-.039-.14-.13-.162-.168.123.085.17.14.237.198.003-.009-.002-.03-.042-.073.01.003.007.012-.003.01-.13-.097-.19-.144-.174-.16.335.182.116-.01.385.112-.109-.1.095-.047.091-.11-.283-.106-.004-.022-.285-.138-.017-.015-.004-.022.012-.007l.175.047c.085.032.063.037.118.062.034-.01.123.043.204.055-.105-.039-.138-.068-.097-.068l-.135-.036c-.14-.099.252.067.11-.022l.082.042c-.04-.042.028-.065-.192-.175.04.01.116.031.13.055.05-.028-.21-.18-.06-.16l.065.027c-.017-.015-.13-.055-.05-.044.03.007.065.027.077.02-.027-.017-.118-.062-.077-.062l.075.031c.108-.013-.173-.129-.213-.17.21.065.286.055.33.046l.029.007c.042-.04-.152-.133-.228-.195.24.033.123-.07.262-.085a.614.612 0 01-.185-.05c.043.001-.139-.058.057-.016.2.033.146-.002.158-.009l-.255-.058c.387.031-.119-.135.224-.095-.068-.019-.063-.038-.121-.053l.138.026c.037-.02.062-.035.031-.075l.096.026c.015-.016-.402-.086-.406-.108l.21.025c-.001-.032.19-.043.008-.102.029.008.09.014.1.016.004-.019.146-.043-.136-.077.192.02.02-.036-.057-.057l.141.017c-.178-.037-.229-.04-.272-.072.022-.005.112.01.08.011.076-.01-.128-.024-.053-.035l.09.014c.015-.017-.036-.02-.136-.037-.058-.015.04-.03.162-.019-.08-.01-.18-.027-.136-.036a.38.378 0 01.09.014c.097-.016-.162-.054-.024-.069.042.001.07.01.083.002-.005.02-.01.038-.02.036.131.014.156 0 .325.025-.096-.026-.302-.07-.236-.084.009.002.022-.005.041 0l.01.003c.012-.007.002-.01-.017-.015.022-.005.034-.012.044-.009.101.007.056-.016.068-.023-.143-.007-.118-.022-.232-.02a.184.183 0 00.019.004l.019.005-.01-.002c-.002.01.008.012.005.022-.07-.009-.129-.024-.055-.026-.09-.013-.18-.027-.231-.03.196.001.302-.002.428-.01-.075-.03-.043-.073-.315-.105-.029-.007.073 0 .115 0 .029.008.017.015.058.015-.067-.018-.018-.046-.21-.066.087-.018.17.025.135-.005l.062.006c.3-.034-.468-.115-.086-.147-.022.004-.032.002-.063.004.17-.058-.148-.144.116-.197.056-.016-.066-.028-.156-.042h.156l-.17-.024c-.126-.034.373-.035.135-.078l-.105.003c.025-.014-.062-.037.062-.035-.02-.006-.102-.007-.049-.013l.083.001-.136-.036c.06-.026.319.012.329-.026-.026-.018-.228-.04-.279-.044-.002.01-.053.007-.126.008l-.04-.01a4.318 4.306 0 00-.631-.004l.137.027h-.114l-.007-.012c-.104.003-.014.017.056.025-.063.004-.105.003-.127.008l.221.028c-.092-.004-.182-.018-.228.001.1.016.208-.006.277.012-.105.003-.197 0-.108.012a.357.356 0 01-.121-.01c.07.007.033.028.155.04-.127.008.033.03-.183.024.051.003.17.024.18.027-.262-.029-.02.036-.297.024.232.021.1.048.24.075-.02-.006-.062-.006-.05-.013a.387.386 0 01-.138.014c.194.011.24.033.362.045-.19.011-.234-.02-.411-.016.155 0 .157.031.291.036-.117.01-.054.006-.22.004.246.013.04.01.19.03-.117.01-.226-.009-.158.01a1.148 1.145 0 01-.163-.014c-.005.02.182.018.284.025.055.025-.136.005-.231.01.049.013.218.038.206.045-.032.002-.041 0-.083 0 .151.018.009.042.188.07h-.04c.092.003.184.007.255.015-.003.01.118.022-.006.02.003-.01-.048-.013-.08-.01l.049.012c-.176-.006-.058-.016-.192-.02.059.015.196.041.15.06-.176-.005-.053-.035-.212-.025l.066-.014c-.27.001.025-.014-.267-.009-.047.02.085.033.038.052.092.004.143.007.233.02.165.044-.426.001-.207.038.111.01.323.035.215.047l-.191-.02c-.018.027.272.032.142.05-.07-.01-.065-.029-.087-.025-.155 0 .11.02.106.03l-.171-.016c.023.027.146.07.17.097-.05-.003-.099-.016-.153-.009.082.042-.03.074-.13.1l.148.028s-.063.004-.092-.004c-.054.007.089.014.15.02.007.012-.083 0-.131-.014.125.033.263.101.098.098l-.04-.01c-.065.013.297.058.16.063l-.029-.008c-.07.033.057.098-.171.1.208.034-.1.024.188.071-.146.002-.204-.014-.302.002-.012.007.175.046.213.057l-.147-.029.154.041-.18-.027.037.02c.01.002.07.008.112.01.065.027-.11.021-.188.001l.119.062-.117-.03c.153.05-.157-.033-.025.013a.426.425 0 00.12.022c-.09-.014-.096.005-.061.035l-.108-.028c-.036.021.036.061.028.09.051.003.226.05.242.064l-.157-.03c.097.025.06.005.174.045-.022.005-.176-.037-.235-.052l.056.025-.136-.036c.097.026-.16-.022.002.031l-.048-.013c-.008.03.038.052.042.074.136.036.104.038.208.076-.044.01-.163-.012-.158.01.062.037.114.04.188.071-.126-.034-.122-.012-.203-.055.011.035.011.035.108.102l.116.031c.017.015-.051-.004-.116-.03l-.01-.004c.168.107-.379-.06-.142.066l-.01-.003.113.082c-.022.004-.082-.043-.159-.063.188.112-.05.028.073.112-.348-.134-.009.071-.235-.01l.082.042c.072.04-.05-.013-.068-.018.065.027.075.03.12.053.067.1-.164.028-.256.024-.03.002.378.257.185.164l-.13-.097c.149.143-.047.06.066.183a.55.55 0 00-.068-.059c-.096-.068-.025.014.052.076-.01-.003-.07-.05-.113-.082-.062-.038.105.111.01.043-.018-.014-.025-.027-.034-.029.04.042-.022.004.078.093-.062-.037.026.06-.046.02.105.11-.075-.03.092.117-.164-.158-.148-.102-.077-.02-.05-.045-.05-.045-.124-.117-.003.01.019.047.102.121-.2-.178.127.19-.13-.056a.842.84 0 01.107.257c-.14-.172.011-.039-.15-.216.04.083.152.247.097.222-.026-.017-.062-.079-.083-.115.037.092-.056.016-.002.123-.017-.015-.021-.036-.028-.049-.003.01-.027-.017.035.062l-.014-.025c.093.118.168.262.213.326-.164-.24-.06-.047-.268-.35.007.011.035.06.073.112a.436.435 0 01-.083-.116c.016.056.085.147.073.154-.031-.039-.036-.06-.064-.11.049.086.089.17.056.14l-.036-.062c-.007.03.1.244.027.173-.105-.194-.048-.054-.14-.214l.015.056.052.077c-.012.007.05.126.009.085l-.033-.07v.04l.048.054c.037.093.11.206.067.173-.004-.022-.012.007-.07-.09.017.056.043.114.012.075a2.55 2.542 0 01-.109-.215c.066.141-.003.05.06.202a1.712 1.707 0 00-.066-.142l.052.117a.871.869 0 01-.06-.119c-.028-.018.108.215.038.124a.155.155 0 01-.019-.046c-.04-.042-.004.092-.05.037-.08-.175.002-.05-.073-.195-.011.04.03.236-.014.204l.017.015c.08.248-.061-.12-.031.001-.005-.02-.028-.09-.032-.112-.031-.039-.01.071-.023.16l-.013-.066c-.026-.058-.033-.029-.057-.056.013.065.006.053.03.153-.117-.373-.037.218-.12-.094l-.003-.063-.018.067c.02.12.013.066.031.154.004.063-.002.123-.002.123.011-.08-.024-.182-.037-.248l.013.107c-.038-.207.02.233-.017.1l-.004-.064c-.007.03-.009.112-.016.1-.017-.129.006-.06-.004-.178-.012.007-.007.257-.024.128.01-.038.01-.038.011-.079-.022-.15-.02-.12-.024-.142l-.014-.024.009.044c-.002.351-.028.065-.046.288.015-.214.002-.124.002-.279a.47.468 0 01-.005-.136c-.012.121-.006-.095-.024.087-.001-.032-.004-.022-.006-.054.005.022-.001.041 0 .073-.023.17-.017-.202-.067.023-.037.094-.059.254-.089.33a.852.85 0 01.027-.18c0-.073-.013-.066-.029-.008.011-.039.011-.08.015-.13-.013.006-.037.175-.039.103.013-.049.027-.138.043-.196a1.012 1.009 0 01-.066.17c.011-.08.033-.127.046-.175-.008.03-.025.055-.05.11.052-.079.026.06.013.107zm2.853-2.394c.02.005-.012.007-.034.011 0 0-.007-.012-.016-.015l-.02-.005c.02.005.05.013.07.01zm-.987-.036c-.007-.013.003-.01 0 0zm.002.031l.005-.019a.557.555 0 01.1.016 1.096 1.093 0 01-.105.003zM448.26 186.345c1.147-1.366 3.046-1.687 4.424-2.765 1.85-.834 3.472-2.017 5-3.333.793-.582 3.658-2.295 1.226-1.482-1.6.85-3.039 1.613-4.45 2.748-1.967.763-3.76 1.845-5.519 3.023-.724.518-1.46 1.011-2.204 1.495M458.353 184.756l.003-.01c-.017-.014-.021-.036-.032-.039a.113.113 0 01.029.05zm-2.254 1.82c-.03-.039-.058-.056-.065-.069.007.013.005.022.012.035zm-1.238-.455c-.007-.012-.004-.02-.011-.034.009.003.014.025.01.034zm3.436-1.659c.002-.01.063.078.074.113a.228.227 0 00-.03-.08zM452.382 166.72c.384 1.814 2.724 1.96 3.712 3.372 1.347 1.45 3.484 1.32 4.876.017 2.015-1.082 1.254-3.678-.118-4.953-1.778-1.963-5.14-2.738-7.373-1.106-1.237 1.874 1.244-.746 2.179-.34 1.902-.09 3.65 1.13 4.84 2.51 1.6 1.27.286 3.14-1.279 3.6-1.652.575-3.013-.99-4.239-1.826-1.223-.39-2.09-1.474-2.27-2.534-.578-.009-.66.936-.328 1.26zm2.795 2.27c.184.185-.233.037 0 0zM473.261 178.304c.193-.952-.66-1.74-1.2-2.46-.512-.648-1.462-1.406-2.243-.851.604.202 1.48.433 1.83 1.18-.061.439.452.788.453 1.216.295.28.265 1.308-.357 1.74-.818.25-1.83.068-2.388-.706-.43-.723-.441-1.105-.34-1.818.16-.549 1.122-1.532-.03-1.507-.772.606-.93 1.417-.995 2.272.03.86.436 1.86 1.095 2.475.756.434 1.728.606 2.573.37.92-.27 1.346-1.068 1.602-1.91zm-4.075-.985c-.078.087-.024-.129 0 0zm-.976.194c.01-.153.138.102 0 0z"/>
  </g>
  <g clip-path="url(#d)" transform="matrix(1.0028 0 0 1 -3.017 -41.646)" fill="#dadae8">
    <path d="M1003.94 257.107c-1.514-2.503.671-5.095-.63-7.71-.396-2.005-2.68-2.679-3.931-3.111.017-2.192-1.877-4.04-3.924-4.573-1.942-.955-4.185-.568-5.636 1.022-1.853-.624-3.83 1.046-4.489 2.793-.16 2.125-2.227.391-3.266.764.4-2.479-2.106-4.696-4.543-4.23-1.812.86-2.777-2.28-4.567-1.683 1.601-.347-2.55.572-1.04-1.138.261-2.052 3.124.103 2.73-2.17.8-.788 1.256-1.18 1.543-2.292 1.24.057 1.42-.18 1.855-1.464.716-1.911 4.575-2.317 4.407.197.394.577 4.022.45 2.889 2.037-.883.016-1.963.477-2.253 1.156-.906-.248-1.72 1.762-2.454 1.381-.957-1.03-4.002 1.364-2.269 1.075.433-1.407 2.587-.183 3.082.373-.307-1.512 1.488-2.142 1.968-2.087.194-1.47 1.95-1.968 2.752-1.126 1.568-1.386 2.42 1.513 2.712 1.67.536-2.058 3.285-2.587 3.999-.797 1.127-1.929 4.494-.204 3.645 1.971.693.86 2.207 1.945 1.764 3.306 1.024-2.16-2.274-2.702-1.407-4.503-.465-1.676-2.497-2.61-3.969-1.508-.842-1.659-3.322-1.204-3.916.447-.64-1.912-3.01-.647-3.295-2.684-1.05-1.47-2.88-.546-3.424-2.62-2.253-1.799-4.571.715-5.464 2.384-1.688.447-1.435 1.79-2.476 2.678-.398 1.73-3.441.9-3.1 3.542-2.142.974-3.445 3.254-5.251 4.39-2.992.983-3.695 5.083-2.15 7.53-1.418 2.335.558 5.815 3.362 6.12.502.017-.702.194.523.108 1.37.153.442-.88 1.735-.406.616 1.45 1.23 2.208 1.952 3.649.229 1.495 1.276 2.903 1.272 4.585-.1 1.398-.21 2.703-.682 4.164a41.632 41.632 0 01-1.228 3.601c-.808 1.08-1.195 3.388-2.344 3.63-.903.993-.64 2.26.515 3.13 1.45.897 2.99 2.221 4.738 2.195 1.093.026 2.398-.507 2.613-1.595.235-1.454.608-2.468 1.088-4.014.762-1.652 1.196-3.437 2.52-4.696 1.284-2.237 3.936-2.915 6.11-3.973 1.762-1.09 3.725-1.896 5.622-2.848 2.007-.781 4.505-.501 6.04-2.39.807-1.472 2.544.569 3.803-.922 1.767-1.1 2.845-3.287 2.469-5.358zm-24.619-18.636l.017-.011zm.056-.017c-.07-.127.101 0 0 0zm-3.703-2.408c.214-.19.079.16 0 0zm-.244.138l-.102.046zm-.657-.247c-.055-.106.27-.08 0 0zm-6.233 22.221l-.109.064zm-.493 21.28l-.011-.023zm.04.097c-.1-.09.17-.059 0 0zm19.751-11.837l-.04.04zm-2.971-20.918l.025.063zm-17.461 11.131c-.56.032.148-.19 0 0zm.346-.074l.125-.023zm1.287-.678l.012-.025zm.602.66c.183-1.616 3.075.258 1.025.076-.653.114-.47.761-1.025-.076zm2.228-.023c-.216-.128.096-.128 0 0zm-.096-.12l-.001.04zm-.119-.035c.099.209-.139 0 0 0zm-1.384.902l.025.052zm.006.064l-.006.005zm-.233.166l-.006-.011zm-.34-.471c.15.221-.15.123 0 0zm1.82 3.052l-.002.047zm.698 1.172c.191.118-.199.085 0 0zm-.091.132l-.028.011zm-.204.54l-.006-.017zm-.136-.35l.005.011zm.108.298l.008.067zm1.009 1.437c.06.086-.128-.007 0 0zm.295 2.707l-.014-.05zm-.323 2.453l.005.012zm-.006-.005l.038.123zm-.023-.018l.031.17zm.023.253l-.02-.066zm-.051-.051l.006-.006zm-.431 1.557l.006-.012zm-.04.166v-.005zm-.028.023l-.016-.05zm-.766 2.035l-.023-.048zm-.017.011l-.005.006zm-.527.558c.133-.171.06.156 0 0zm.55-1.046l.006.04zm.006-.006v.006zm.102-.155l.019.177zm.72-1.431l.012.006zm.414-1.827c-.176-.005.09-.102 0 0zm-.023.206l.028.04zm.04-.086v.006zm.21-4.93l.005.017zm-2.274 10.24v.063zm5.313 6.413c-.717.801-1.882.94-2.73.666-1.164-.058-1.999-.824-3.036-1.433-1.401-.422-2.748-2.594-1.138-3.007 1.1 1.576 3.025 2.27 4.704 3.112.721.421 1.627.201 2.2.662zm-.028-.253l-.006.023zm.023-.017c-.1-.148.305.187 0 0zm.068-.011c-.031-.2.15.12 0 0zm.096-.092c-.162.05-.002-.17 0 0zm10.996-13.815c-.275.113.056-.197 0 0zm.124-.126l.051-.034zm16.12-9.413c-.149 2.154-2.603 5.742-4.808 3.962-.87-1.252-1.699 2.316-3.265 2.244-1.539 1.395-5.575-.01-5.421-.624-1.183-.813-.543-2.178-2.231-2.037-1.399-2.553-4.384 1.538-6.103-1.262-.715-1.924-.92.65.344.885.378.82-2.112 1.325-2.293 2.005-.809 1.291-2.113 1.011-2.317-.674-1.194-1.02-1.21-3.648-2.322-4.035.22 1.228.556 1.86 1.11 3.173.57 1.668 1.943 4.452 3.741 2.075 1.026-.765 2.035-2.588 3.522-1.865.782.6-1.756 1.65-2.428 2.579-2.042 1.176.52 3.505 1.958 1.744 1.641-.868 3.061-1.925 4.68-2.789 2.054-.642.013-.646-.618.176-.915.35-2.19.683-2.71 1.265-1.111.449-1.802 1.263-2.892 1.324-1.472-.93 1.774-2.31 2.27-3.348.945-1.176 3.522-2.355 3.336-1.02 2.271.187 2.103 3.12 4.607 3.47-1.611.762-2.858 1.525-4.665 2.216-1.832 1.024-3.875 1.685-5.59 2.665-1.866 1.385-3.089 3.43-3.928 5.56-.852 1.694-1.115 3.9-1.859 5.367-2.024-.355-4.104-1.24-5.647-2.629-1.46-.568.561-2.45.699-3.081.403.771.589.094 1.146.143.613-.028 1.031-.424 1.24-.64.002-.012-.547-.18-.776-.043-.235.237-.976.03-1.14.27-.747.33.54-1.714.945-1.304.512-.076 1.222-.26 1.504-.682.508-.142-.45-.156-.575-.125-.386.346-.597-.049-1.218.254-.155-1.138.904-.878 1.085-1.448.62-.393-.148-.31-.232-.283-.44.364.188-1.062.565-1.218.667-.232-.488-.173-.3-.937.197-.465.869-.529 1.142-.656-.178-.403-.388-.32-.592-.23-.649.032.06-.803.29-1.069.342.176-.305-.416-.39-.198-.092.745-.444-2.737.01-2.06.202 0 .918-.325 1.009-.471.344-.085-.092-.426-.386-.288-.252.132-.808-.09-.87.257-1.004-1.019-.482-1.95.775-1.806.326-.47 1.388-.346 1.178-.777-.169.125-.844-.223-.975.194-.602-.01-.813.048-1.435.15-.553.744-1.257-.99-.811-1.196.793.123 1.794-.252 2.734-.58.529-.197 1.392-.333.44-.491-.651-.096-.609.104-1.37.214-.596-.019-1.513.218-1.835.49-1.19.114-.86-1.202.134-1.042.697.21 1.672-.455 2.284-.656.742-.108-.205-.237-.524-.25-.302.103-.361.087-.978.298-.856-.318-1.636.842-2.193.255-.923-.542.268-.721.388-.89.78.149 1.102-.742 1.67-.646 1.28.418 1.823-1.316 2.949.038.863 1.101 4.61-1.344 2.77-1.131-1.102 1.692-3.716.605-4.274-.924.694 1.627-2.155 2.051-2.177 1.275-2.2-1.676-4.198 2.28-6.314-.11-2.006-1.014-1.616-3.946-.69-4.328-1.2-1.596-1.474-3.933-.578-5.693 1.283-1.945 3.724-2.292 4.924-4.442 1.478-1.759 4.754-2.455 6.197-.325.97 1.907 3.952-1.006 5.226 1.46 1.393 1.188.47 2.296 1.23 3.223 2.15-.548 5.255 1.68 3.625 3.912 1.151 1.928 2.01 4.889.126 7.016-1.35 1.92-4.872 1.98-5.95-.265 1.023 2.718 5.055 2.432 6.379.115 1.418-1.901 1.267-4.706-.14-6.63 1.532-1.866-1.153-3.36-.692-5.178.995-1.411 2.793-3.81 4.746-2.73.901-1.085 3.308-2.286 5.198-1.108 1.648.381 2.768 1.676 3.57 3.097.193 1.023.01 1.361.238 1.442-.338 1.55 2.614.026 3.155 1.726 1.201 1.654 1.501 4.557.594 6.181-.097 1.136.444 2.465.779 3.494zm-14.061 5.672c.437.382-.283.001 0 0zm-.085-.885l-.05-.093zm-5.319-.759c-.295-.135.073-.382 0 0zm.068-.189l-.006.005zm-8.234-1.288c.009.161-.114-.05 0 0zm-.074-.04l-.017-.017zm-.193-.253c-.047-.122.203.146 0 0zm.017.035l.054.015zm7.1 2.89c-.16.077.019-.146 0 0zm-11.472 12.332l.019.059zm2.053-10.591l.015.058zm-.822-1.89l.005-.006zm-.329-1.856l.005-.006zm.011-.075l.023.053zm-.907-1.155l.005-.006zm.011-.069l.017.053z"/>
    <path d="M999.582 257.779c-.27-.77-.822-1.44-1.446-1.91-.295-.486-1.65-.145-1.53-.496.47-.6.588-1.532.361-2.312-.164-.894-.434-1.932-1.286-2.42-.33-.361-1.214-.37-.626.264.768.189.883.685 1.194 1.517.096.963.457 2.124-.311 2.919-.742.702-.04.9.617.701 1.116-.098 2.203.549 2.68 1.555-.01.289.29.807.347.182zm-3.062-6.431c-.016.102-.106-.118 0 0zm-.453.334l-.012-.018zm.034.069c-.064-.088.118-.01 0 0zm3.402 6.401c-.105-.053-.03.105 0 0zM978.391 247.314c-.662-.575-1.476-1.12-2.39-1.071-.41-.018-.67.348-1.05.44-.44.16-.919-.055-1.21-.393-.69-.408-1.586-.243-2.192.242-.266.158-.406.472-.692.589-.683.326-1.458.712-1.727 1.475-.275.78 0 1.688.63 2.213.273.236.606.405.963.46-.575-.427-1.216-.922-1.37-1.663-.115-.741.465-1.427 1.116-1.7.371-.214.947-.175 1.244-.345-.049-.432.312-.805.73-.847.665-.101 1.42.173 1.76.778.224.403.74.308.954-.052.293-.323.622-.78 1.119-.706.396.103.82.163 1.133.467.266.178.598.567.934.406.028-.096.036-.194.048-.293zm-2.416-.908c-.144.009.058-.109 0 0zm.074-.063c.038-.008.027-.006 0 0zM992.239 246.257c-.398-.421-.884-.573-1.428-.53-.56-.033-1.37.329-1.365.953.356.333.783-.398 1.272-.287.484-.082 1.004-.25 1.46.053.055-.044.067-.123.061-.189zm-2.28.287v-.005zM994.904 259.824c-.553-.213-.76.579-.975.938-.2.207-.366.687.119.456.38-.258.862-.637.882-1.12a.928.928 0 00-.026-.274zm-.431.207c.051.015.041.012 0 0z"/>
  </g>
  <g clip-path="url(#e)" transform="matrix(1.0028 0 0 1 -3.017 -41.646)" fill="#dadae8">
    <path d="M73.999 228.068c2.767 4.704 3.992 10.11 6.465 14.959 3.205 7.283 6.75 14.414 9.546 21.873.65.964 1.67 5.655 2.18 4.806-.86-4.581-3.312-8.634-4.449-13.146-2.697-8.2-7.31-15.641-9.566-24.003-3.735-8.003-7.1-16.203-11.397-23.92-.966-1.382-1.907-6.931-3.617-5.3 1.105 3.672 3.56 6.808 4.84 10.441 2.176 4.688 4.42 9.35 5.998 14.29zm-5.75-13.83l-.072-.131zm.246.523c-.624-.186.489-.37 0 0zm.693-1.685c.28-.084-.118.446 0 0zM122.599 266.448c-5.857.97-11.852 1.291-17.489 3.29-3.498.937-7.228 2.18-10.84 1.336-3.858.955 2.256 2.099 3.705 1.542 7.126-.471 13.77-3.493 20.875-4.163 4.893-.805 9.712-1.973 14.667-2.393 4.016-.665-3.697-.587-5.203-.076-1.97.204-3.865-.12-5.715.464zm-22.812 4.417l.057-.05zm.477 1.307l.086-.029zm.274-.058c-.186-.413.413.186 0 0zm35.02-6.407c-.384.3.337.15 0 0zM142.536 158.367c-2.41.298-3.029 4.553-5.605 1.561-3.094-2.055-6.918-1.226-10.066.144-2.732.746-4.853 2.651-6.718 4.702-1.718 2.34-2.943 4.88-4.33 7.449.34 2.646 2.456-1.712 2.894-2.77 1.943-3.052 4.51-5.837 7.7-7.588 3.258-1.39 7.11-2.904 10.544-1.178 3.695 1.442-1.224 4.685-1.573 7.168-2.098 1.962-2.811 5.182-3.928 7.825-.316 1.231-1.93 4.714-.633 4.59 1.62-1.994 1.89-5.037 3.391-7.267 1.386-3.198 3.486-6.069 4.739-9.351.906-1.889 2.269-4.15 3.585-5.285zm-23.52 10.372l.014-.058zm.087-.174c-.437.023.22-.24 0 0zm11.268 10.561c-.093-.247.082.321 0 0zm.029.087l-.036-.134zm.015-.029l.015-.093zm-.072-.102l-.015-.029zm-.058-.043l.019.078zm0 0l.043.13zm.029.014c.084.279.058.193 0 0zm0 .189l.014.057zm0 .131l.029.102zm.014.087l-.04-.107zm-.043-.145l.049.134zm.289.871l.042.142zm.043.146v.014zm1.965-4.329v-.044zm.043-.146c-.42.348-.01-.3 0 0zm6.314-13.975c-.223.22-.15-.131 0 0zM37.217 144.29c.813 1.547 1.648 3.45 3.334 4.152 1.843 1.112 4.036 1.004 5.974 1.616 1.379.991 2.898 1.086 3.77 2.616 1.224.996 3.13 2.085 3.556 3.46-.604-.159 1.298 1.832 1.219 1.075.691 1.511 2.14 2.3 3.142 3.657 1.633 1.362 2.797 3.196 4.32 4.67 1.104.628 1.712 3.223 3.007 2.479.218-1.499-1.796-2.254-2.32-3.66-1.345-1.038-1.8-2.164-2.98-3.402-.495-.567-2.716-1.38-1.32-1.489-1.281-1.181-2.403-2.434-3.54-3.778-1.15-1.907-3.028-3.168-4.59-4.708-1.343-1.412-3.068-2.398-4.985-2.774-1.52-.618-3.354-.384-4.622-1.498-1.597-.78-2.789-2.509-2.478-4.316.274-1.913 2.264-3.349 4.151-3.063 1.553.725 2.69 2.424 4.564 2.488 2.384.63 3.553-1.805 4.122-3.587 1.247-1.239 3.01-1.93 4.742-1.654 1.629.54 2.955 1.584 3.502 3.333 1.154 1.363 1.32 3.024 1.8 4.768a65.525 65.525 0 001.951 4.714c.408 1.614 2.055 2.554 2.369 4.141.416.76 1.118.792.852 1.778.713 1.017 2.266 1.715 2.744 3.02 1.466 1.607-.282-1.171-.642-1.785-1.247-.755-1.422-2.285-2.332-3.292-.612-1.57-1.834-2.703-2.248-4.287-1.065-1.39-1.616-3.09-1.776-4.822-.3-1.193-.63-2.56-1.38-3.36.89-.365-1.092-1.804-.804-2.72-.114-.757-.957-.634-.973-1.54-1.054.067-2.749-1.823-3.052-1.387.68.92-1.371-.836-2.06.044-1.658.233-3.042 1.251-3.876 2.677-1.02.81-.557 2.643-2.18 2.513-1.61.594-2.521-1.284-3.941-1.776 1.388.097-1.388-.613-1.958-.822-1.87-.783-2.723 1.263-4.205 1.683-1.22 1.327-1.062 3.09-.857 4.836zm17.986 11.505c.135.134.117.117 0 0zm-.274-.276c-.34.332-.077-.966 0 0zm-.332 1.671c.426.024-.093.31 0 0zM118.279 155.548c.626.994 1.724 1.585 2.384 2.564.715 1.199 2.122 1.411 3.072 2.268.288 1.111 1.214.096.563-.456-.424-1.137-1.764-1.595-2.341-2.658-.365-1.002-1.663-1.547-2.534-2.139-.454-.442-1.104-.24-1.144.421zm1.994-.188c.002.101-.097-.05 0 0zm-.78.987c.04.177-.18-.026 0 0zM88.85 220.514l-.043.101c.029.029.043.044.072.029-.029-.043-.043-.072-.029-.13zm32.593 3.297a.772.772 0 00-.058.305.11.11 0 00.073.029zm-27.782 19.423c.015.029.044.029.058.058z"/>
    <path d="M85.138 227.414c.446 8.146 4.84 16.978 12.903 19.864 4.853 1.192 10.103.17 14.649-1.736 6.193-2.508 10.01-9.105 9.696-15.688.273-3.885-2.079-7.213-2.563-10.866-.975-1.837-2.731-.97-3.973-3.038-5.955-4.882-15.49-5.907-21.725-.965-2.273.995-5.442 5.27-5.164 6.046 3.631-5.288 9.985-9.728 16.675-8.18 6.952.922 13.261 6.286 14.762 13.212.795 4.22.595 8.801-1.993 12.397-2.39 4.037-6.758 6.602-11.402 6.991-4.329.992-9.301 1.186-12.894-1.889-4.61-4.123-8.027-10.19-7.5-16.543.105-1.452 1.686-5.939-.739-3.51-.376 1.271.098 2.776-.732 3.905zm5.533 12.057c.397-.047-.112.605 0 0zm-.029 1.933c.779.781-.593-.011 0 0zm-.477-.349l-.142-.158zM75.472 189.106c-.38-1.36-1.726 1.434-2.125 1.916-.31 1.744-1.954 2.556-2.642 4.126-.23.946-2.148 3.91.007 3.045 1.117-1.516 1.833-3.283 2.992-4.756.857-1.26.619-3.483 1.768-4.331zm-5.432 7.031c.175-.04-.085.191 0 0zm1.272.625c-.276.265-.04-.261 0 0z"/>
    <path d="M69.203 137.724c.113 5.414 5.03 8.26 9.084 10.785 1.39 2.12 6.855 5.562 8.281 9.509-2.538 1.908-2.768 6.377-.12 2.432 1.088-2.168 4.93-4.987 7.944-5.38 3.998-.86 7.548-.542 10.62 1.697 1.036 4.064.611 10.659-1.696 13.99-4.173 1.059-7.659 2.72-11.114 5.493-1.336-1.578-2.213-7.606-4.958-9.621-1.7-2.499-7.714-6.709-12.85-7.158-5.46-.821-8.364 4.453-8.389 9.285-2.4 5.25-9.423 8.61-8.364 15.168-1.424 6.446 4.962 11.918 5.992 17.138 3.012 1.54 9.024-1.36 12.759-1.644 4.772-1.483 7.428-1.756 13.35-3.29 7.507-2.15 15.097-4.269 22.6-6.384 5.199-1.166 11.83-5.888 16.349-4.907a735.533 735.533 0 002.149 31.148c.524 4.267.919 9.37 1.65 13.92.33 6.383 1.262 12.072 1.832 18.566.797 4.833 1.212 9.918 1.965 14.89-.106-5.695-.245-11.56-1.708-17.011 1.355-1.853 1.25 2.157 2.753 2.31 1.198 1.006 1.35 1.666 1.534.24-.294-1.093-1.352-1.185-1.521-2.824-1.16-1.795-3.901-1.88-3.186-5.66.169-2.414 2.793 1.95 4.336 3.597 1.47 1.036 3.856 2.629 2.887 4.65-1.28 3.612-2.345 6.614-2.764 10.488-.189 2.263-3.823 6.619-.763 6.648.831-2.89 1.896-5.845 2.805-9.017.977-4.055 2.407-8.28 2.885-12.52.058-3.35 1.29-6.747 1.632-9.687.19-2.32-.841 3.44-1.869 3.225-.833-.314-1.179-2.4-2.085-2.402-1.358-1.594-3.318-4.165-4.856-5.543-1.248-2.28-3.998.106-1.358.261 1.103 2.256 3.463 4.893 5.86 6.643 1.316 1.173 3.327 2.181 1.985 4.152-.863.752-.452 5.097-1.206 4.412-.275-.827-2.001-1.657-2.86-3.404-.47-2.013-4.357-3.247-4.677-5.68-.348-4.322-.856-9.975-.975-13.182-.845-4.872-.638-8.681-1.515-13.877.34-3.407 3.677 4.081 5.735 5.54 2.146 2.668 4.997 3.606 6.495 6.578-.083 2.417 1.599 9.904-.308 7.91-.728-.796-2.858-2.002-3.405-4.22-2.18-2.02-2.803-3.019-4.588-4.38-3.445-2.408-.232 2.137 1.564 3.611 2.088 3.094 5.207 5.457 7.713 8.067 2.561 3.546-.607-2.282.152-4.631-.746-3.957-.504-8.23-.808-12.241.227-3.889-1.11-7.4-.715-12.402-.665-4.805.09-9.376-.165-14.483.073-4.526-.42-12.134-.083-14.77-.757-3.319.16-9.44-.43-13.37-2.19 3.095.108 7.22-.993 10.718.235 4.98.072 10.113-.032 15.034.449 8.005-.007 16.083.944 24.046-.163 2.215 1.873 10.4.402 8.671-1.48-.83-1.77-2.868-2.79-3.115-1.394-.589-2.252-2.672-3.662-4.536-1.77-2.7-4.275-3.251-5.61-6.303.232-4.706-.755-11.256-.723-13.144-.16-3.106.715-8.391-.662-10.078-7.843 2.984-15.81 5.742-23.849 8.124-1.638-.581 3.55-4.938 4.135-7.143.62-1.626 1.364-3.405 2.635-4.351-1.652-.434-2.196 1.85-3.253 2.85-.898 1.962-3.056 3.732-4.383 5.928-.347 3.166-4.345 4.515-7.64 5.22-3.457.323 2.12-3.755 3.25-5.875 2.09-3.068 4.445-6.107 5.704-9.618 1.984-2.15 2.706-6.068.55-2.026-1.648 1.768-2.771 3.085-3.46 5.192-1.708 2.369-3.737 4.29-5.443 6.934-2.2 3.072-3.145 7.82-8.057 7.722.933-1.475-2.982 1.136-2.947.72-6.418 1.694-12.873 3.383-19.408 4.582-2.365.4-5.894-4.063-4.701-5.24-.103-1.064 2.285-2.368 2.829-3.734 1.687-1.643 2.483-5.336 3.168-5.824-1.495.404-1.433 1.165-2.541 2.292-.287 1.034-1.83 2.46-2.96 3.8-.452 2.393-3.11 2.38-2.79 1.227-1.03-2.941.678-3.3 1.828-5.658 1.375-1.454 2.7-4.095 3.515-6.177 1.792-1.964-.045-1.753-.629-.395-1.373.927-1.59 1.897-2.236 3.735-2.626.576-3.327 7.657-3.886 2.674-1.187-5.404 2.117-9.991 6.035-13.254 3.986-3.534 1.454-12.3 8.4-12.528 4.818-.057 9.654 3.181 12.219 6.018 3.5 3.515 5.196 8.066 5.837 12.967 1.164 2.997-1.288 11.793-.282 11.28 1.242-1.813.687-5.049 2.078-5.877 1.709-2.43 3.455-4.604 5.084-7.179-.014-1.796 3.616-3.98 1.795-3.724-.946 1.051-2.655 2.18-3.068 3.176-.779 2.24-2.505 2.326-3.62 4.73-.99 2.13-3.1-5.692-.183-5.168 2.227-2.383 5.456-3.226 9.108-4.285 3.78-1.912 9.154-1.293 11.943 1.97 2.242.701 3.668 7.987 4.268 5.748-.89-2.113-1.692-4.87-3.567-6.735-1.364-2.26-5.596-3.286-7.366-3.704-4.88.433.08-8.699-.732-10.184 1.752-5.802.232-11.559-4.991-15.036-4.086-5.445 5.115-12.223 8.09-5.308.398 4.828 4.509 5.325 6.938 1.551 6.265-3.826 8.6 5.515 3.49 8.317-2.59 3.769-5.388 8.022-6.262 12.332-1.37 1.538-3.068 11.743-1.063 5.135 1.36-4.583 2.59-8.785 5.218-12.78 1.936-4.14 5.94-5.673 6.617-10.423-.083-5.713-8.415-6.031-11.12-1.754-3.128 1.413-1.71-6.889-6.282-6.656-6.844-2.446-11.255 7.637-5.783 11.891 3.777 1.997 5.341 7.462 3.968 9.312-1.823-.496-3.388-3.31-5.775-2.9-3.832-.774-8.662-.332-11.85 2.635-2.062.2-4.578-4.883-6.772-6.431-3.335-3.855-9.411-5.694-10.388-11.211-1.958-5.02 4.908-6.387 5.237-1.171 2.385 4.07 8.511-2.952 9.39 3.315-2.27 4.559 2.045 7.811 3.802 10.567 4.222 4.135-2.135-3.676-2.797-5.046-1.852-2.79 1.732-8.669-2.537-9.462-3.496-1.027-7.048 2.638-7.999-2.718-2.824-4.003-7.523-.562-6.96 3.673zm27.001 35.591l.006-.003zM57.63 188.307c-.16-.535.3.235 0 0zm77.899 57.426h-.014zm.144-.044l-.116.08zm-.895-.537c-.069-.284.538-.102 0 0zm.202-.088c-.096.504-.385-.16 0 0zm-.014.16l-.14.061zm.028.16l.045-.056zm0 .058l.072-.073zm-.086-.058l.13-.12zm-.029-.029c.003-.452 1.077-.06 0 0zm.014-.363c-.416.233.42-.29 0 0zm-.115.029l.17-.102zm0-.044l.029-.014zm.101-.087l-.102.066zm4.45 15.588v-.058zm.028-.204c-.384.002.17-.268 0 0zm-3.871-29.344l-.029-.015zm.086.072l.068-.126zm7.86 7.365c.691-.06.135-.105 0 0zm.332.102l-.302.383zm-.116.581l-.029.015zm.015.029l-.04.06zm-.044.087h-.043zm-1.675 7.511l-.138.058zm.765 1.772c-.402-.28.504-.127 0 0zm-.101-.116l.07-.057zm-7.859-9.239c.06.349-.3-.045 0 0zm-.159.058l-.029-.015zm-.578-.262l.044-.18zm-.072-.261c-.138-.283.608-.085 0 0zm.202-.291l-.158.116zm1.69-16.009l-.029-.014zm.102.102l.068-.14zm8.451 8.106l.122-.093zm.13-.276l-.148.182zm-.144.654c-.139-.586.518.09 0 0zm.231.073l.205.23zm.534.595l-.163.12zm-.014.639l.079.016zm.115.102l-.028-.029zm-.491-.436l.198-.154zm.275.465l.1.016zm.202.392c-.385-.457.979-.08 0 0zm.116-1.06l.105-.054zm-1.821-59.024c.01.437-.239-.261 0 0zm-1.416.625l-.014-.145zm0 .567c-.352-.478.583-.104 0 0zm1.33 46.007c.175.365-.64.048 0 0zm-10.027-10.619c.051.356-.286-.054 0 0zm-.173.029l-.029-.015zm-1.864-1.831c-.168-.374.355-.237 0 0zm.015.262c-.186-.477.58-.396 0 0zm-.044-.567l.12-.13zm-25.86-18.26v-.029zm.072-.131l-.119-.023zm-1.3-.581l.067.047zm-6.862 1.975l.014-.043zm.13-.203c-.125.228-.27-.329 0 0zm-2.052 3.007l-.12-.023zm-5.547 2.615c1.222-.41-.32.602 0 0zm-.708.349l-.275.087zm-1.618-.974c.02-.316.801.091 0 0zm-22.697 5.375c1.493.21-.553.303 0 0zm-1.69-6.798v-.029zm.058-.116l-.124-.055zm-2.297-4.809v-.029zm.057-.116l-.137-.044zm-1.3-.596l.067.066zm-.939-1.278c.527.493-.565.255 0 0zm.65 2.557c-.03.311-.13-.239 0 0zm33.951-4.141v-.029zm.072-.13l-.132-.024zm-1.445.624l-.057-.218zm.188 1.729l.101.04zm.593-3.486l-.072-.054zm-.16-.335c.429.096-.1.4 0 0zm.087.552v.137zM97 174.448l.043-.043zm.173-.116c-.252-.317.365.053 0 0zm10.344-19.786v-.189zm.015-.959c.491.614-.638.19 0 0zm-1.488 1.482c.005-.541.225.265 0 0zm-.203 1.99c.145-.28.145.28 0 0zm.116.146l-.026.073zm.173.769c-.102.455-.324-.23 0 0zm-.231-1.249c.447.514-.268.083 0 0zm-19.46 1.075l.068.06zm1.141.872l.03-.044zm.16-.189c-.148.239-.248-.362 0 0zm-.666-.843c-.003.34-.362-.098 0 0zm-7.165-9.065l.1.073zm-.231-.174c-.283.35-.152-.581 0 0zm-.362 1.496l.111.095z"/>
    <path d="M93.661 232.31c-1.007 4.247 2.657 9.423 7.266 8.647 5.274.417 9.752-5.906 6.91-10.575-2.66-2.525-1.906-6.092 1.573-7.19 3.84-1.727 2.457-7.548-1.765-4.964-.521-2.474-4.896-3.576-5.218-.645 2.43-4.596 4.404 4.418 7.256.94 2.63.476-.334 4.622-2.217 4.137-2.826 1.915-4.48 5.614-.924 7.682 2.536 4.28-1.536 9.896-6.379 8.966-5.08-.385-6.886-7.596-3.159-10.726 2.77-1.93 6.632-3.585 7.156-7.397-1.262-1.611-2.323 3.617-4.265 4.124-2.742 1.732-6.33 3.071-6.234 7.001zm3.323-3.53l-.04.099zm-1.286-.64l-.086.117zm-.303.363c.3.438-.709-.026 0 0zM146.061 233.617h.029c0-.029.014-.058.014-.073-.014.044-.029.073-.043.073zm-5.143-4.794c.043-.058.072-.102.072-.131-.014.015-.029.015-.043.029zm-.058-2.382c.014-.015.029-.015.058-.015-.029 0-.044.015-.058.015zm5.605 6.784c.029-.015.044.116.029.174.015-.043.044-.072.044-.116zM141.64 206.059c-1.148-1.132-1.505-2.877-2.843-3.85-1.008-.948-1.908-2.065-2.384-3.38-1.225-1.105-2.11-2.583-3.51-3.487-.026-1.18-2.08-1.54-1.733-.083.49.995 1.576 1.543 2.19 2.47 1.48 1.722 2.541 3.8 4.309 5.264 1.078.981 2.267 1.878 3.091 3.099-.267.763 1.123.756.88-.033zm-8.769-9.268l-.029-.015zm.072.087c-.058-.285.35.081 0 0zM131.426 182.903c.935 1.27 2.159 2.349 2.762 3.843 1.287 1.668 2.584 3.447 4.453 4.501.535.527 1.068 1.534 1.804 1.566 0-1.005-1.066-1.428-1.336-2.369-.267-.97-1.227-1.168-1.846-1.83-.72-.552-.726-1.522-1.203-2.16-.925-1.093-1.799-2.246-2.901-3.165-.384-.514-.663-1.776-1.362-.772-.127.126-.25.256-.371.386zm1.777 1.714c.037.282-.235-.028 0 0zm-.173.029l-.029-.014zm7.628 7.83l.014-.014zM134.619 176.206c-.253.23.239.458.265.61.412-.095.282.377.49.562.237.254.56.417.766.704.6.673 1.045 1.491 1.77 2.048.061.408.55.395.843.544.491.338.985.691 1.38 1.144-.143.445.678.533.604.055.03-.434-.406-.667-.584-1.012.07-.317-.303-.636-.35-.547.149-.355-.213-.595-.5-.7-.38-.275-.863-.557-.935-1.067.127-.46-.254-.72-.583-.946-.24-.429-.601-.8-1.06-.993-.28.06.023-.47-.327-.285-.281-.028-.483-.296-.677-.478-.166-.314-.58-.553-.798-.146-.109.118-.417.476-.304.507zm1.141.93c.006.173-.186-.054 0 0z"/>
  </g>
  <defs>
    <clipPath id="b">
      <path transform="translate(320 91)" d="M0 0h101v92H0z" fill="#fff"/>
    </clipPath>
    <clipPath id="c">
      <path transform="rotate(-15 1466.988 -4386.824)" d="M0 0h42.605v60.97H0z" fill="#fff"/>
    </clipPath>
    <clipPath id="d">
      <path transform="translate(963 231)" d="M0 0h41v52H0z" fill="#fff"/>
    </clipPath>
    <clipPath id="e">
      <path transform="translate(37 132)" d="M0 0h110v141H0z" fill="#fff"/>
    </clipPath>
    <clipPath id="f">
      <path transform="translate(37 132)" d="M0 0h110v141H0z" fill="#fff"/>
    </clipPath>
    <clipPath id="g">
      <path transform="rotate(-15 1466.988 -4386.824)" d="M0 0h42.605v60.97H0z" fill="#fff"/>
    </clipPath>
    <clipPath id="h">
      <path transform="translate(37 132)" d="M0 0h110v141H0z" fill="#fff"/>
    </clipPath>
    <filter id="a" x="0" y="4.089" width="1440" height="479.911" filterUnits="userSpaceOnUse" color-interpolation-filters="sRGB">
      <feFlood flood-opacity="0" result="BackgroundImageFix"/>
      <feBlend in="SourceGraphic" in2="BackgroundImageFix" result="shape"/>
      <feColorMatrix in="SourceAlpha" values="0 0 0 0 0 0 0 0 0 0 0 0 0 0 0 0 0 0 127 0" result="hardAlpha"/>
      <feOffset dy="4"/>
      <feGaussianBlur stdDeviation="7"/>
      <feComposite in2="hardAlpha" operator="arithmetic" k2="-1" k3="1"/>
      <feColorMatrix values="0 0 0 0 0 0 0 0 0 0 0 0 0 0 0 0 0 0 0.25 0"/>
      <feBlend in2="shape" result="effect1_innerShadow"/>
    </filter>
  </defs>
  <g transform="matrix(1.0028 0 0 1 1256.325 -30.654)" clip-path="url(#f)" fill="#dadae8">
    <path d="M73.999 228.068c2.767 4.704 3.992 10.11 6.465 14.959 3.205 7.283 6.75 14.414 9.546 21.873.65.964 1.67 5.655 2.18 4.806-.86-4.581-3.312-8.634-4.449-13.146-2.697-8.2-7.31-15.641-9.566-24.003-3.735-8.003-7.1-16.203-11.397-23.92-.966-1.382-1.907-6.931-3.617-5.3 1.105 3.672 3.56 6.808 4.84 10.441 2.176 4.688 4.42 9.35 5.998 14.29zm-5.75-13.83l-.072-.131zm.246.523c-.624-.186.489-.37 0 0zm.693-1.685c.28-.084-.118.446 0 0zM122.599 266.448c-5.857.97-11.852 1.291-17.489 3.29-3.498.937-7.228 2.18-10.84 1.336-3.858.955 2.256 2.099 3.705 1.542 7.126-.471 13.77-3.493 20.875-4.163 4.893-.805 9.712-1.973 14.667-2.393 4.016-.665-3.697-.587-5.203-.076-1.97.204-3.865-.12-5.715.464zm-22.812 4.417l.057-.05zm.477 1.307l.086-.029zm.274-.058c-.186-.413.413.186 0 0zm35.02-6.407c-.384.3.337.15 0 0zM142.536 158.367c-2.41.298-3.029 4.553-5.605 1.561-3.094-2.055-6.918-1.226-10.066.144-2.732.746-4.853 2.651-6.718 4.702-1.718 2.34-2.943 4.88-4.33 7.449.34 2.646 2.456-1.712 2.894-2.77 1.943-3.052 4.51-5.837 7.7-7.588 3.258-1.39 7.11-2.904 10.544-1.178 3.695 1.442-1.224 4.685-1.573 7.168-2.098 1.962-2.811 5.182-3.928 7.825-.316 1.231-1.93 4.714-.633 4.59 1.62-1.994 1.89-5.037 3.391-7.267 1.386-3.198 3.486-6.069 4.739-9.351.906-1.889 2.269-4.15 3.585-5.285zm-23.52 10.372l.014-.058zm.087-.174c-.437.023.22-.24 0 0zm11.268 10.561c-.093-.247.082.321 0 0zm.029.087l-.036-.134zm.015-.029l.015-.093zm-.072-.102l-.015-.029zm-.058-.043l.019.078zm0 0l.043.13zm.029.014c.084.279.058.193 0 0zm0 .189l.014.057zm0 .131l.029.102zm.014.087l-.04-.107zm-.043-.145l.049.134zm.289.871l.042.142zm.043.146v.014zm1.965-4.329v-.044zm.043-.146c-.42.348-.01-.3 0 0zm6.314-13.975c-.223.22-.15-.131 0 0zM37.217 144.29c.813 1.547 1.648 3.45 3.334 4.152 1.843 1.112 4.036 1.004 5.974 1.616 1.379.991 2.898 1.086 3.77 2.616 1.224.996 3.13 2.085 3.556 3.46-.604-.159 1.298 1.832 1.219 1.075.691 1.511 2.14 2.3 3.142 3.657 1.633 1.362 2.797 3.196 4.32 4.67 1.104.628 1.712 3.223 3.007 2.479.218-1.499-1.796-2.254-2.32-3.66-1.345-1.038-1.8-2.164-2.98-3.402-.495-.567-2.716-1.38-1.32-1.489-1.281-1.181-2.403-2.434-3.54-3.778-1.15-1.907-3.028-3.168-4.59-4.708-1.343-1.412-3.068-2.398-4.985-2.774-1.52-.618-3.354-.384-4.622-1.498-1.597-.78-2.789-2.509-2.478-4.316.274-1.913 2.264-3.349 4.151-3.063 1.553.725 2.69 2.424 4.564 2.488 2.384.63 3.553-1.805 4.122-3.587 1.247-1.239 3.01-1.93 4.742-1.654 1.629.54 2.955 1.584 3.502 3.333 1.154 1.363 1.32 3.024 1.8 4.768a65.525 65.525 0 001.951 4.714c.408 1.614 2.055 2.554 2.369 4.141.416.76 1.118.792.852 1.778.713 1.017 2.266 1.715 2.744 3.02 1.466 1.607-.282-1.171-.642-1.785-1.247-.755-1.422-2.285-2.332-3.292-.612-1.57-1.834-2.703-2.248-4.287-1.065-1.39-1.616-3.09-1.776-4.822-.3-1.193-.63-2.56-1.38-3.36.89-.365-1.092-1.804-.804-2.72-.114-.757-.957-.634-.973-1.54-1.054.067-2.749-1.823-3.052-1.387.68.92-1.371-.836-2.06.044-1.658.233-3.042 1.251-3.876 2.677-1.02.81-.557 2.643-2.18 2.513-1.61.594-2.521-1.284-3.941-1.776 1.388.097-1.388-.613-1.958-.822-1.87-.783-2.723 1.263-4.205 1.683-1.22 1.327-1.062 3.09-.857 4.836zm17.986 11.505c.135.134.117.117 0 0zm-.274-.276c-.34.332-.077-.966 0 0zm-.332 1.671c.426.024-.093.31 0 0zM118.279 155.548c.626.994 1.724 1.585 2.384 2.564.715 1.199 2.122 1.411 3.072 2.268.288 1.111 1.214.096.563-.456-.424-1.137-1.764-1.595-2.341-2.658-.365-1.002-1.663-1.547-2.534-2.139-.454-.442-1.104-.24-1.144.421zm1.994-.188c.002.101-.097-.05 0 0zm-.78.987c.04.177-.18-.026 0 0zM88.85 220.514l-.043.101c.029.029.043.044.072.029-.029-.043-.043-.072-.029-.13zm32.593 3.297a.772.772 0 00-.058.305.11.11 0 00.073.029zm-27.782 19.423c.015.029.044.029.058.058z"/>
    <path d="M85.138 227.414c.446 8.146 4.84 16.978 12.903 19.864 4.853 1.192 10.103.17 14.649-1.736 6.193-2.508 10.01-9.105 9.696-15.688.273-3.885-2.079-7.213-2.563-10.866-.975-1.837-2.731-.97-3.973-3.038-5.955-4.882-15.49-5.907-21.725-.965-2.273.995-5.442 5.27-5.164 6.046 3.631-5.288 9.985-9.728 16.675-8.18 6.952.922 13.261 6.286 14.762 13.212.795 4.22.595 8.801-1.993 12.397-2.39 4.037-6.758 6.602-11.402 6.991-4.329.992-9.301 1.186-12.894-1.889-4.61-4.123-8.027-10.19-7.5-16.543.105-1.452 1.686-5.939-.739-3.51-.376 1.271.098 2.776-.732 3.905zm5.533 12.057c.397-.047-.112.605 0 0zm-.029 1.933c.779.781-.593-.011 0 0zm-.477-.349l-.142-.158zM75.472 189.106c-.38-1.36-1.726 1.434-2.125 1.916-.31 1.744-1.954 2.556-2.642 4.126-.23.946-2.148 3.91.007 3.045 1.117-1.516 1.833-3.283 2.992-4.756.857-1.26.619-3.483 1.768-4.331zm-5.432 7.031c.175-.04-.085.191 0 0zm1.272.625c-.276.265-.04-.261 0 0z"/>
    <path d="M69.203 137.724c.113 5.414 5.03 8.26 9.084 10.785 1.39 2.12 6.855 5.562 8.281 9.509-2.538 1.908-2.768 6.377-.12 2.432 1.088-2.168 4.93-4.987 7.944-5.38 3.998-.86 7.548-.542 10.62 1.697 1.036 4.064.611 10.659-1.696 13.99-4.173 1.059-7.659 2.72-11.114 5.493-1.336-1.578-2.213-7.606-4.958-9.621-1.7-2.499-7.714-6.709-12.85-7.158-5.46-.821-8.364 4.453-8.389 9.285-2.4 5.25-9.423 8.61-8.364 15.168-1.424 6.446 4.962 11.918 5.992 17.138 3.012 1.54 9.024-1.36 12.759-1.644 4.772-1.483 7.428-1.756 13.35-3.29 7.507-2.15 15.097-4.269 22.6-6.384 5.199-1.166 11.83-5.888 16.349-4.907a735.533 735.533 0 002.149 31.148c.524 4.267.919 9.37 1.65 13.92.33 6.383 1.262 12.072 1.832 18.566.797 4.833 1.212 9.918 1.965 14.89-.106-5.695-.245-11.56-1.708-17.011 1.355-1.853 1.25 2.157 2.753 2.31 1.198 1.006 1.35 1.666 1.534.24-.294-1.093-1.352-1.185-1.521-2.824-1.16-1.795-3.901-1.88-3.186-5.66.169-2.414 2.793 1.95 4.336 3.597 1.47 1.036 3.856 2.629 2.887 4.65-1.28 3.612-2.345 6.614-2.764 10.488-.189 2.263-3.823 6.619-.763 6.648.831-2.89 1.896-5.845 2.805-9.017.977-4.055 2.407-8.28 2.885-12.52.058-3.35 1.29-6.747 1.632-9.687.19-2.32-.841 3.44-1.869 3.225-.833-.314-1.179-2.4-2.085-2.402-1.358-1.594-3.318-4.165-4.856-5.543-1.248-2.28-3.998.106-1.358.261 1.103 2.256 3.463 4.893 5.86 6.643 1.316 1.173 3.327 2.181 1.985 4.152-.863.752-.452 5.097-1.206 4.412-.275-.827-2.001-1.657-2.86-3.404-.47-2.013-4.357-3.247-4.677-5.68-.348-4.322-.856-9.975-.975-13.182-.845-4.872-.638-8.681-1.515-13.877.34-3.407 3.677 4.081 5.735 5.54 2.146 2.668 4.997 3.606 6.495 6.578-.083 2.417 1.599 9.904-.308 7.91-.728-.796-2.858-2.002-3.405-4.22-2.18-2.02-2.803-3.019-4.588-4.38-3.445-2.408-.232 2.137 1.564 3.611 2.088 3.094 5.207 5.457 7.713 8.067 2.561 3.546-.607-2.282.152-4.631-.746-3.957-.504-8.23-.808-12.241.227-3.889-1.11-7.4-.715-12.402-.665-4.805.09-9.376-.165-14.483.073-4.526-.42-12.134-.083-14.77-.757-3.319.16-9.44-.43-13.37-2.19 3.095.108 7.22-.993 10.718.235 4.98.072 10.113-.032 15.034.449 8.005-.007 16.083.944 24.046-.163 2.215 1.873 10.4.402 8.671-1.48-.83-1.77-2.868-2.79-3.115-1.394-.589-2.252-2.672-3.662-4.536-1.77-2.7-4.275-3.251-5.61-6.303.232-4.706-.755-11.256-.723-13.144-.16-3.106.715-8.391-.662-10.078-7.843 2.984-15.81 5.742-23.849 8.124-1.638-.581 3.55-4.938 4.135-7.143.62-1.626 1.364-3.405 2.635-4.351-1.652-.434-2.196 1.85-3.253 2.85-.898 1.962-3.056 3.732-4.383 5.928-.347 3.166-4.345 4.515-7.64 5.22-3.457.323 2.12-3.755 3.25-5.875 2.09-3.068 4.445-6.107 5.704-9.618 1.984-2.15 2.706-6.068.55-2.026-1.648 1.768-2.771 3.085-3.46 5.192-1.708 2.369-3.737 4.29-5.443 6.934-2.2 3.072-3.145 7.82-8.057 7.722.933-1.475-2.982 1.136-2.947.72-6.418 1.694-12.873 3.383-19.408 4.582-2.365.4-5.894-4.063-4.701-5.24-.103-1.064 2.285-2.368 2.829-3.734 1.687-1.643 2.483-5.336 3.168-5.824-1.495.404-1.433 1.165-2.541 2.292-.287 1.034-1.83 2.46-2.96 3.8-.452 2.393-3.11 2.38-2.79 1.227-1.03-2.941.678-3.3 1.828-5.658 1.375-1.454 2.7-4.095 3.515-6.177 1.792-1.964-.045-1.753-.629-.395-1.373.927-1.59 1.897-2.236 3.735-2.626.576-3.327 7.657-3.886 2.674-1.187-5.404 2.117-9.991 6.035-13.254 3.986-3.534 1.454-12.3 8.4-12.528 4.818-.057 9.654 3.181 12.219 6.018 3.5 3.515 5.196 8.066 5.837 12.967 1.164 2.997-1.288 11.793-.282 11.28 1.242-1.813.687-5.049 2.078-5.877 1.709-2.43 3.455-4.604 5.084-7.179-.014-1.796 3.616-3.98 1.795-3.724-.946 1.051-2.655 2.18-3.068 3.176-.779 2.24-2.505 2.326-3.62 4.73-.99 2.13-3.1-5.692-.183-5.168 2.227-2.383 5.456-3.226 9.108-4.285 3.78-1.912 9.154-1.293 11.943 1.97 2.242.701 3.668 7.987 4.268 5.748-.89-2.113-1.692-4.87-3.567-6.735-1.364-2.26-5.596-3.286-7.366-3.704-4.88.433.08-8.699-.732-10.184 1.752-5.802.232-11.559-4.991-15.036-4.086-5.445 5.115-12.223 8.09-5.308.398 4.828 4.509 5.325 6.938 1.551 6.265-3.826 8.6 5.515 3.49 8.317-2.59 3.769-5.388 8.022-6.262 12.332-1.37 1.538-3.068 11.743-1.063 5.135 1.36-4.583 2.59-8.785 5.218-12.78 1.936-4.14 5.94-5.673 6.617-10.423-.083-5.713-8.415-6.031-11.12-1.754-3.128 1.413-1.71-6.889-6.282-6.656-6.844-2.446-11.255 7.637-5.783 11.891 3.777 1.997 5.341 7.462 3.968 9.312-1.823-.496-3.388-3.31-5.775-2.9-3.832-.774-8.662-.332-11.85 2.635-2.062.2-4.578-4.883-6.772-6.431-3.335-3.855-9.411-5.694-10.388-11.211-1.958-5.02 4.908-6.387 5.237-1.171 2.385 4.07 8.511-2.952 9.39 3.315-2.27 4.559 2.045 7.811 3.802 10.567 4.222 4.135-2.135-3.676-2.797-5.046-1.852-2.79 1.732-8.669-2.537-9.462-3.496-1.027-7.048 2.638-7.999-2.718-2.824-4.003-7.523-.562-6.96 3.673zm27.001 35.591l.006-.003zM57.63 188.307c-.16-.535.3.235 0 0zm77.899 57.426h-.014zm.144-.044l-.116.08zm-.895-.537c-.069-.284.538-.102 0 0zm.202-.088c-.096.504-.385-.16 0 0zm-.014.16l-.14.061zm.028.16l.045-.056zm0 .058l.072-.073zm-.086-.058l.13-.12zm-.029-.029c.003-.452 1.077-.06 0 0zm.014-.363c-.416.233.42-.29 0 0zm-.115.029l.17-.102zm0-.044l.029-.014zm.101-.087l-.102.066zm4.45 15.588v-.058zm.028-.204c-.384.002.17-.268 0 0zm-3.871-29.344l-.029-.015zm.086.072l.068-.126zm7.86 7.365c.691-.06.135-.105 0 0zm.332.102l-.302.383zm-.116.581l-.029.015zm.015.029l-.04.06zm-.044.087h-.043zm-1.675 7.511l-.138.058zm.765 1.772c-.402-.28.504-.127 0 0zm-.101-.116l.07-.057zm-7.859-9.239c.06.349-.3-.045 0 0zm-.159.058l-.029-.015zm-.578-.262l.044-.18zm-.072-.261c-.138-.283.608-.085 0 0zm.202-.291l-.158.116zm1.69-16.009l-.029-.014zm.102.102l.068-.14zm8.451 8.106l.122-.093zm.13-.276l-.148.182zm-.144.654c-.139-.586.518.09 0 0zm.231.073l.205.23zm.534.595l-.163.12zm-.014.639l.079.016zm.115.102l-.028-.029zm-.491-.436l.198-.154zm.275.465l.1.016zm.202.392c-.385-.457.979-.08 0 0zm.116-1.06l.105-.054zm-1.821-59.024c.01.437-.239-.261 0 0zm-1.416.625l-.014-.145zm0 .567c-.352-.478.583-.104 0 0zm1.33 46.007c.175.365-.64.048 0 0zm-10.027-10.619c.051.356-.286-.054 0 0zm-.173.029l-.029-.015zm-1.864-1.831c-.168-.374.355-.237 0 0zm.015.262c-.186-.477.58-.396 0 0zm-.044-.567l.12-.13zm-25.86-18.26v-.029zm.072-.131l-.119-.023zm-1.3-.581l.067.047zm-6.862 1.975l.014-.043zm.13-.203c-.125.228-.27-.329 0 0zm-2.052 3.007l-.12-.023zm-5.547 2.615c1.222-.41-.32.602 0 0zm-.708.349l-.275.087zm-1.618-.974c.02-.316.801.091 0 0zm-22.697 5.375c1.493.21-.553.303 0 0zm-1.69-6.798v-.029zm.058-.116l-.124-.055zm-2.297-4.809v-.029zm.057-.116l-.137-.044zm-1.3-.596l.067.066zm-.939-1.278c.527.493-.565.255 0 0zm.65 2.557c-.03.311-.13-.239 0 0zm33.951-4.141v-.029zm.072-.13l-.132-.024zm-1.445.624l-.057-.218zm.188 1.729l.101.04zm.593-3.486l-.072-.054zm-.16-.335c.429.096-.1.4 0 0zm.087.552v.137zM97 174.448l.043-.043zm.173-.116c-.252-.317.365.053 0 0zm10.344-19.786v-.189zm.015-.959c.491.614-.638.19 0 0zm-1.488 1.482c.005-.541.225.265 0 0zm-.203 1.99c.145-.28.145.28 0 0zm.116.146l-.026.073zm.173.769c-.102.455-.324-.23 0 0zm-.231-1.249c.447.514-.268.083 0 0zm-19.46 1.075l.068.06zm1.141.872l.03-.044zm.16-.189c-.148.239-.248-.362 0 0zm-.666-.843c-.003.34-.362-.098 0 0zm-7.165-9.065l.1.073zm-.231-.174c-.283.35-.152-.581 0 0zm-.362 1.496l.111.095z"/>
    <path d="M93.661 232.31c-1.007 4.247 2.657 9.423 7.266 8.647 5.274.417 9.752-5.906 6.91-10.575-2.66-2.525-1.906-6.092 1.573-7.19 3.84-1.727 2.457-7.548-1.765-4.964-.521-2.474-4.896-3.576-5.218-.645 2.43-4.596 4.404 4.418 7.256.94 2.63.476-.334 4.622-2.217 4.137-2.826 1.915-4.48 5.614-.924 7.682 2.536 4.28-1.536 9.896-6.379 8.966-5.08-.385-6.886-7.596-3.159-10.726 2.77-1.93 6.632-3.585 7.156-7.397-1.262-1.611-2.323 3.617-4.265 4.124-2.742 1.732-6.33 3.071-6.234 7.001zm3.323-3.53l-.04.099zm-1.286-.64l-.086.117zm-.303.363c.3.438-.709-.026 0 0zM146.061 233.617h.029c0-.029.014-.058.014-.073-.014.044-.029.073-.043.073zm-5.143-4.794c.043-.058.072-.102.072-.131-.014.015-.029.015-.043.029zm-.058-2.382c.014-.015.029-.015.058-.015-.029 0-.044.015-.058.015zm5.605 6.784c.029-.015.044.116.029.174.015-.043.044-.072.044-.116zM141.64 206.059c-1.148-1.132-1.505-2.877-2.843-3.85-1.008-.948-1.908-2.065-2.384-3.38-1.225-1.105-2.11-2.583-3.51-3.487-.026-1.18-2.08-1.54-1.733-.083.49.995 1.576 1.543 2.19 2.47 1.48 1.722 2.541 3.8 4.309 5.264 1.078.981 2.267 1.878 3.091 3.099-.267.763 1.123.756.88-.033zm-8.769-9.268l-.029-.015zm.072.087c-.058-.285.35.081 0 0zM131.426 182.903c.935 1.27 2.159 2.349 2.762 3.843 1.287 1.668 2.584 3.447 4.453 4.501.535.527 1.068 1.534 1.804 1.566 0-1.005-1.066-1.428-1.336-2.369-.267-.97-1.227-1.168-1.846-1.83-.72-.552-.726-1.522-1.203-2.16-.925-1.093-1.799-2.246-2.901-3.165-.384-.514-.663-1.776-1.362-.772-.127.126-.25.256-.371.386zm1.777 1.714c.037.282-.235-.028 0 0zm-.173.029l-.029-.014zm7.628 7.83l.014-.014zM134.619 176.206c-.253.23.239.458.265.61.412-.095.282.377.49.562.237.254.56.417.766.704.6.673 1.045 1.491 1.77 2.048.061.408.55.395.843.544.491.338.985.691 1.38 1.144-.143.445.678.533.604.055.03-.434-.406-.667-.584-1.012.07-.317-.303-.636-.35-.547.149-.355-.213-.595-.5-.7-.38-.275-.863-.557-.935-1.067.127-.46-.254-.72-.583-.946-.24-.429-.601-.8-1.06-.993-.28.06.023-.47-.327-.285-.281-.028-.483-.296-.677-.478-.166-.314-.58-.553-.798-.146-.109.118-.417.476-.304.507zm1.141.93c.006.173-.186-.054 0 0z"/>
  </g>
  <g transform="matrix(1.40952 0 0 1.40559 -1429.104 -155.47)" clip-path="url(#g)" fill="#dadae8">
    <path d="M1232.66 242.098c-.719-3.219-2.16-6.63-5.38-8.035-2.516-.919-5.25-1.798-7.938-1.198-2.34.217-3.679 2.538-5.741 1.455-1.583-.416-4.743 1.199-3.575-1.843.433-2.54.21-5.144.91-7.667.191-2.195-3.21-.081-4.564.084-2.964 1.419-3.074 5.033-2.455 7.83.406 2.044 1.12 4.64-1.837 4.754-1.848 1.596-4.534 2.495-5.433 5.026-.737 2.606-4.803 1.92-5.359 4.797-.338 1.867-.037 3.546.19 5.124 1.841 3.98 3.87 7.888 6.115 11.658 2.424 3.947 4.378 8.164 6.594 12.227 1.638 3.003 3.366 6.93 7.197 7.432 3.037-.172 5.907-2.404 8.973-.716 2.904 1.125 5.22-.955 5.833-3.645 1.904-3.185 6.557-.523 8.27-3.802 2.097-3.49.569-7.635.69-11.43.689-1.206-.344-3.728-.357-3.647-.51-4.025-.914-8.047-1.403-12.071-.33-2.036-.795-4.304-.73-6.333zm-22.22-6.813c.233.073-.112.155 0 0zm0 .111l-.01.014zm-.65-.545c-.47-.075.259-.228 0 0zm-4.26 1.262c-.407-2.77-1.032-5.727-.348-8.47.884-1.66 5.774-4.097 4.355-.52-.354 3.554-.428 7.116-.727 10.668 0 1.526.25 5.788-2.117 4.62-.348-2.294-1.003-4.015-1.163-6.298zm1.2 6.908l.02-.016zm-2.15-5.966c-.162-.304.235-.196 0 0zm1.59 6.527c-.227-.214.425-.251 0 0zm-.85-7.434l.02.072zm-.04-.321c.245.264-.383.067 0 0zm-.68.768c-.072.253-.107-.31 0 0zm-7.08 6.126c-.136.124-.133-.268 0 0zm-.03.076l-.01.024zm-.52.56c1.622-1.659 3.314-3.314 5.187-4.797 1.158-1.455 3.219-1.673 2.976.77.52 2.25 1.268 5.53-1.533 6.61-1.956-1.007-4.244-1.63-6.378-2.42zm7.5 4.644c.142-.249.127.239 0 0zm.1.128v.044zm-7.32-4.271c-.568-.078.214-.094 0 0zm-.2-.014l.107.028zm-2.96 11.423l.04.04zm.14.184l-.118-.088zm-.14-.052c.516.618.01-.233 0 0zm.71 1.471l-.09-.042zm-.04-.066l-.07-.028zm-.1-.063l.077.03zm-.52-1.024c.693-.029.141.233 0 0zm.02.161l.088.043zm.02.062l.087.042zm.02.171l-.01-.031zm.96 3.187c-.66-.68.097-.417 0 0zm-.45-2.436c.513.087.137 1.052 0 0zm.34.172c-.58-.184.135-.393 0 0zm4.59 8.071l-.01-.018zm3.36 6.099c-.188.117-.336-.3 0 0zm-.12.064l.128.065zm-.25 1.993l.01.021zm.01.086l.02.007zm2.45 1.614c.247.114.154.071 0 0zm3.09 5.382c.396-.096.058.208 0 0zm-.05-.074c-.25-.15-.198-.12 0 0zm6 1.702c.304-.2-.028.197 0 0zm2.94-.964c.352.09.496.127 0 0zm14.33-41.096c.522 2.603.462 5.414 1.207 7.9-.435 1.803.436 4.279.236 6.36.753 1.31.365 5.034.72 5.01-.01-.258.2 3.356.356 4.525.33 3.807 1.496 8.036-.513 11.57-1.334 1.817-4.618 1.143-6.143 1.546-2.215 1.17-2.104 4.311-4.524 5.128-1.752.264-3.933-.626-5.43-1.233.704-1.359 1.19-4.15.707-4.873-2.013 1.296-.407 5.068-3.1 5.805-1.996.056.794-3.194.627-4.507-.176-1.192.59-3.377.114-3.966-.888 1.972-1.027 4.12-1.93 6.14.376 2.845-2.156 4.348-4.295 2.27-.808-1.472 1.258-3.873.8-5.723-1.666.283-1.356 5.62-2.836 3.308-2.14-1.91-1.306-4.27-.351-6.43.737-2.257-1.087-.761-1.203.6-.739.782-.878 2.335-1.671.514-1.229-1.197 1.423-4.574-.13-4.542-.553.67-1.044 2.893-1.68.877-.424-1.68.938-2.764.978-5.055.39-1.72-.28-2.233-1.115-.497.42 1.44-.98 2.298-.787 3.851-1.94-1.667-1.04-3.87.131-5.652.531-1.411 1.272-5.36-.264-2.684-.659 1.084-1.032 4.28-2.17 4.175-1.372-1.318-2.31-2.877-.972-4.08.915-1.966 1.268-4.35 1.414-6.133-1.416 1.5-1.98 3.939-2.345 6.154-.613 1.363-1.688-2.265-1.293-1.62-2.098-2.083.44-4.316.366-6.596-1.504-.333-1.715 4.721-3.044 1.91-1.353-2.533-2.297-6.428.646-8.26 3.102-1.918 6.81-.321 9.64 1.33.73 1.228-.738 4.28.922 4.868.55-2.162-.35-4.931 1.54-6.773 1.763-2.19 4.722-1.86 7.21-1.786 2.229-.121 4.864.398 6.731-1.031-2.402.761-4.776.214-7.212.061-2.248.309-4.894.356-3.548-2.7-.372-2.457.533-5.03 3.38-4.266 1.14-.295 3.95-.942 1.999.945-1.038.572-1.467 3.701-.596 1.275 1.46-2.583 4.094-4.67 7.195-4.474 2.96.15 5.98.903 8.09 3.108 1.09.94 1.957 2.199 2.143 3.651zm-14.22 40.447c.18-.174.085.18 0 0zm.1.071v-.01zm-3.08.305l.113.027zm.09.087l.01.021zm-5.37-.344c.183-.172.082.184 0 0zm.1.073v-.01zm-3.22-5.382l.107.033zm.1.084v-.01zm-.92-.351l-.059-.038zm-2.63-6.769c.192-.194.097.196 0 0zm.12.068v-.01zm-2.1-3.423c.207-.157.049.221 0 0zm-.84-.228l-.065-.039zm-1.54-4.638l.113.027zm.1.074l.01.021zm-.95-.21l-.068-.026zm-2.28-3.864c.2-.158.064.205 0 0zm.1.074v-.011zm8.61-7.798l-.058-.05z"/>
    <path d="M1214.59 271.208a36.389 36.389 0 00-3.069-6.619c-.732-2.835-2.491-5.227-3.937-7.725-1.435-.286-.251 1.522.09 2.089.84 1.538 1.522 3.16 2.325 4.72.568 1.18.953 2.434 1.917 3.36.949 1.344 1.511 2.913 2.435 4.273-.105.49.197.079.239-.098zm-5.57-12.324c-.039.153-.14-.192 0 0zm-.89.58l-.01-.029zm.06.118c-.153-.16.245-.016 0 0zM1220.89 249.736c-1.423.18-1.015 1.916-.691 2.845.314.944.52 1.924.528 2.913.609 3.484 1.062 7.02 2.214 10.38.24.959.182 2.006.574 2.916.515-.608.134-1.54.129-2.284-.195-1.961-.416-3.936-1.001-5.826-.064-3.57-1.123-7.01-2-10.44-.028-.188.029-.46.247-.504zm-.34 3.49l-.02-.039zm.03.147c-.076-.174.207.028 0 0zM1212.27 277.643c-1.554.521-1.513 2.673-1.933 3.925 1.371 1.153 1.69-1.683 1.708-2.67.036-.424.09-.85.225-1.255zm-2.03 3.468c.113-.071-.049.136 0 0zm1 .261l-.051-.02z"/>
  </g>
  <g transform="matrix(.72168 0 0 .71967 545.58 17.713)" clip-path="url(#h)" fill="#dadae8">
    <path d="M73.999 228.068c2.767 4.704 3.992 10.11 6.465 14.959 3.205 7.283 6.75 14.414 9.546 21.873.65.964 1.67 5.655 2.18 4.806-.86-4.581-3.312-8.634-4.449-13.146-2.697-8.2-7.31-15.641-9.566-24.003-3.735-8.003-7.1-16.203-11.397-23.92-.966-1.382-1.907-6.931-3.617-5.3 1.105 3.672 3.56 6.808 4.84 10.441 2.176 4.688 4.42 9.35 5.998 14.29zm-5.75-13.83l-.072-.131zm.246.523c-.624-.186.489-.37 0 0zm.693-1.685c.28-.084-.118.446 0 0zM122.599 266.448c-5.857.97-11.852 1.291-17.489 3.29-3.498.937-7.228 2.18-10.84 1.336-3.858.955 2.256 2.099 3.705 1.542 7.126-.471 13.77-3.493 20.875-4.163 4.893-.805 9.712-1.973 14.667-2.393 4.016-.665-3.697-.587-5.203-.076-1.97.204-3.865-.12-5.715.464zm-22.812 4.417l.057-.05zm.477 1.307l.086-.029zm.274-.058c-.186-.413.413.186 0 0zm35.02-6.407c-.384.3.337.15 0 0zM142.536 158.367c-2.41.298-3.029 4.553-5.605 1.561-3.094-2.055-6.918-1.226-10.066.144-2.732.746-4.853 2.651-6.718 4.702-1.718 2.34-2.943 4.88-4.33 7.449.34 2.646 2.456-1.712 2.894-2.77 1.943-3.052 4.51-5.837 7.7-7.588 3.258-1.39 7.11-2.904 10.544-1.178 3.695 1.442-1.224 4.685-1.573 7.168-2.098 1.962-2.811 5.182-3.928 7.825-.316 1.231-1.93 4.714-.633 4.59 1.62-1.994 1.89-5.037 3.391-7.267 1.386-3.198 3.486-6.069 4.739-9.351.906-1.889 2.269-4.15 3.585-5.285zm-23.52 10.372l.014-.058zm.087-.174c-.437.023.22-.24 0 0zm11.268 10.561c-.093-.247.082.321 0 0zm.029.087l-.036-.134zm.015-.029l.015-.093zm-.072-.102l-.015-.029zm-.058-.043l.019.078zm0 0l.043.13zm.029.014c.084.279.058.193 0 0zm0 .189l.014.057zm0 .131l.029.102zm.014.087l-.04-.107zm-.043-.145l.049.134zm.289.871l.042.142zm.043.146v.014zm1.965-4.329v-.044zm.043-.146c-.42.348-.01-.3 0 0zm6.314-13.975c-.223.22-.15-.131 0 0zM37.217 144.29c.813 1.547 1.648 3.45 3.334 4.152 1.843 1.112 4.036 1.004 5.974 1.616 1.379.991 2.898 1.086 3.77 2.616 1.224.996 3.13 2.085 3.556 3.46-.604-.159 1.298 1.832 1.219 1.075.691 1.511 2.14 2.3 3.142 3.657 1.633 1.362 2.797 3.196 4.32 4.67 1.104.628 1.712 3.223 3.007 2.479.218-1.499-1.796-2.254-2.32-3.66-1.345-1.038-1.8-2.164-2.98-3.402-.495-.567-2.716-1.38-1.32-1.489-1.281-1.181-2.403-2.434-3.54-3.778-1.15-1.907-3.028-3.168-4.59-4.708-1.343-1.412-3.068-2.398-4.985-2.774-1.52-.618-3.354-.384-4.622-1.498-1.597-.78-2.789-2.509-2.478-4.316.274-1.913 2.264-3.349 4.151-3.063 1.553.725 2.69 2.424 4.564 2.488 2.384.63 3.553-1.805 4.122-3.587 1.247-1.239 3.01-1.93 4.742-1.654 1.629.54 2.955 1.584 3.502 3.333 1.154 1.363 1.32 3.024 1.8 4.768a65.525 65.525 0 001.951 4.714c.408 1.614 2.055 2.554 2.369 4.141.416.76 1.118.792.852 1.778.713 1.017 2.266 1.715 2.744 3.02 1.466 1.607-.282-1.171-.642-1.785-1.247-.755-1.422-2.285-2.332-3.292-.612-1.57-1.834-2.703-2.248-4.287-1.065-1.39-1.616-3.09-1.776-4.822-.3-1.193-.63-2.56-1.38-3.36.89-.365-1.092-1.804-.804-2.72-.114-.757-.957-.634-.973-1.54-1.054.067-2.749-1.823-3.052-1.387.68.92-1.371-.836-2.06.044-1.658.233-3.042 1.251-3.876 2.677-1.02.81-.557 2.643-2.18 2.513-1.61.594-2.521-1.284-3.941-1.776 1.388.097-1.388-.613-1.958-.822-1.87-.783-2.723 1.263-4.205 1.683-1.22 1.327-1.062 3.09-.857 4.836zm17.986 11.505c.135.134.117.117 0 0zm-.274-.276c-.34.332-.077-.966 0 0zm-.332 1.671c.426.024-.093.31 0 0zM118.279 155.548c.626.994 1.724 1.585 2.384 2.564.715 1.199 2.122 1.411 3.072 2.268.288 1.111 1.214.096.563-.456-.424-1.137-1.764-1.595-2.341-2.658-.365-1.002-1.663-1.547-2.534-2.139-.454-.442-1.104-.24-1.144.421zm1.994-.188c.002.101-.097-.05 0 0zm-.78.987c.04.177-.18-.026 0 0zM88.85 220.514l-.043.101c.029.029.043.044.072.029-.029-.043-.043-.072-.029-.13zm32.593 3.297a.772.772 0 00-.058.305.11.11 0 00.073.029zm-27.782 19.423c.015.029.044.029.058.058z"/>
    <path d="M85.138 227.414c.446 8.146 4.84 16.978 12.903 19.864 4.853 1.192 10.103.17 14.649-1.736 6.193-2.508 10.01-9.105 9.696-15.688.273-3.885-2.079-7.213-2.563-10.866-.975-1.837-2.731-.97-3.973-3.038-5.955-4.882-15.49-5.907-21.725-.965-2.273.995-5.442 5.27-5.164 6.046 3.631-5.288 9.985-9.728 16.675-8.18 6.952.922 13.261 6.286 14.762 13.212.795 4.22.595 8.801-1.993 12.397-2.39 4.037-6.758 6.602-11.402 6.991-4.329.992-9.301 1.186-12.894-1.889-4.61-4.123-8.027-10.19-7.5-16.543.105-1.452 1.686-5.939-.739-3.51-.376 1.271.098 2.776-.732 3.905zm5.533 12.057c.397-.047-.112.605 0 0zm-.029 1.933c.779.781-.593-.011 0 0zm-.477-.349l-.142-.158zM75.472 189.106c-.38-1.36-1.726 1.434-2.125 1.916-.31 1.744-1.954 2.556-2.642 4.126-.23.946-2.148 3.91.007 3.045 1.117-1.516 1.833-3.283 2.992-4.756.857-1.26.619-3.483 1.768-4.331zm-5.432 7.031c.175-.04-.085.191 0 0zm1.272.625c-.276.265-.04-.261 0 0z"/>
    <path d="M69.203 137.724c.113 5.414 5.03 8.26 9.084 10.785 1.39 2.12 6.855 5.562 8.281 9.509-2.538 1.908-2.768 6.377-.12 2.432 1.088-2.168 4.93-4.987 7.944-5.38 3.998-.86 7.548-.542 10.62 1.697 1.036 4.064.611 10.659-1.696 13.99-4.173 1.059-7.659 2.72-11.114 5.493-1.336-1.578-2.213-7.606-4.958-9.621-1.7-2.499-7.714-6.709-12.85-7.158-5.46-.821-8.364 4.453-8.389 9.285-2.4 5.25-9.423 8.61-8.364 15.168-1.424 6.446 4.962 11.918 5.992 17.138 3.012 1.54 9.024-1.36 12.759-1.644 4.772-1.483 7.428-1.756 13.35-3.29 7.507-2.15 15.097-4.269 22.6-6.384 5.199-1.166 11.83-5.888 16.349-4.907a735.533 735.533 0 002.149 31.148c.524 4.267.919 9.37 1.65 13.92.33 6.383 1.262 12.072 1.832 18.566.797 4.833 1.212 9.918 1.965 14.89-.106-5.695-.245-11.56-1.708-17.011 1.355-1.853 1.25 2.157 2.753 2.31 1.198 1.006 1.35 1.666 1.534.24-.294-1.093-1.352-1.185-1.521-2.824-1.16-1.795-3.901-1.88-3.186-5.66.169-2.414 2.793 1.95 4.336 3.597 1.47 1.036 3.856 2.629 2.887 4.65-1.28 3.612-2.345 6.614-2.764 10.488-.189 2.263-3.823 6.619-.763 6.648.831-2.89 1.896-5.845 2.805-9.017.977-4.055 2.407-8.28 2.885-12.52.058-3.35 1.29-6.747 1.632-9.687.19-2.32-.841 3.44-1.869 3.225-.833-.314-1.179-2.4-2.085-2.402-1.358-1.594-3.318-4.165-4.856-5.543-1.248-2.28-3.998.106-1.358.261 1.103 2.256 3.463 4.893 5.86 6.643 1.316 1.173 3.327 2.181 1.985 4.152-.863.752-.452 5.097-1.206 4.412-.275-.827-2.001-1.657-2.86-3.404-.47-2.013-4.357-3.247-4.677-5.68-.348-4.322-.856-9.975-.975-13.182-.845-4.872-.638-8.681-1.515-13.877.34-3.407 3.677 4.081 5.735 5.54 2.146 2.668 4.997 3.606 6.495 6.578-.083 2.417 1.599 9.904-.308 7.91-.728-.796-2.858-2.002-3.405-4.22-2.18-2.02-2.803-3.019-4.588-4.38-3.445-2.408-.232 2.137 1.564 3.611 2.088 3.094 5.207 5.457 7.713 8.067 2.561 3.546-.607-2.282.152-4.631-.746-3.957-.504-8.23-.808-12.241.227-3.889-1.11-7.4-.715-12.402-.665-4.805.09-9.376-.165-14.483.073-4.526-.42-12.134-.083-14.77-.757-3.319.16-9.44-.43-13.37-2.19 3.095.108 7.22-.993 10.718.235 4.98.072 10.113-.032 15.034.449 8.005-.007 16.083.944 24.046-.163 2.215 1.873 10.4.402 8.671-1.48-.83-1.77-2.868-2.79-3.115-1.394-.589-2.252-2.672-3.662-4.536-1.77-2.7-4.275-3.251-5.61-6.303.232-4.706-.755-11.256-.723-13.144-.16-3.106.715-8.391-.662-10.078-7.843 2.984-15.81 5.742-23.849 8.124-1.638-.581 3.55-4.938 4.135-7.143.62-1.626 1.364-3.405 2.635-4.351-1.652-.434-2.196 1.85-3.253 2.85-.898 1.962-3.056 3.732-4.383 5.928-.347 3.166-4.345 4.515-7.64 5.22-3.457.323 2.12-3.755 3.25-5.875 2.09-3.068 4.445-6.107 5.704-9.618 1.984-2.15 2.706-6.068.55-2.026-1.648 1.768-2.771 3.085-3.46 5.192-1.708 2.369-3.737 4.29-5.443 6.934-2.2 3.072-3.145 7.82-8.057 7.722.933-1.475-2.982 1.136-2.947.72-6.418 1.694-12.873 3.383-19.408 4.582-2.365.4-5.894-4.063-4.701-5.24-.103-1.064 2.285-2.368 2.829-3.734 1.687-1.643 2.483-5.336 3.168-5.824-1.495.404-1.433 1.165-2.541 2.292-.287 1.034-1.83 2.46-2.96 3.8-.452 2.393-3.11 2.38-2.79 1.227-1.03-2.941.678-3.3 1.828-5.658 1.375-1.454 2.7-4.095 3.515-6.177 1.792-1.964-.045-1.753-.629-.395-1.373.927-1.59 1.897-2.236 3.735-2.626.576-3.327 7.657-3.886 2.674-1.187-5.404 2.117-9.991 6.035-13.254 3.986-3.534 1.454-12.3 8.4-12.528 4.818-.057 9.654 3.181 12.219 6.018 3.5 3.515 5.196 8.066 5.837 12.967 1.164 2.997-1.288 11.793-.282 11.28 1.242-1.813.687-5.049 2.078-5.877 1.709-2.43 3.455-4.604 5.084-7.179-.014-1.796 3.616-3.98 1.795-3.724-.946 1.051-2.655 2.18-3.068 3.176-.779 2.24-2.505 2.326-3.62 4.73-.99 2.13-3.1-5.692-.183-5.168 2.227-2.383 5.456-3.226 9.108-4.285 3.78-1.912 9.154-1.293 11.943 1.97 2.242.701 3.668 7.987 4.268 5.748-.89-2.113-1.692-4.87-3.567-6.735-1.364-2.26-5.596-3.286-7.366-3.704-4.88.433.08-8.699-.732-10.184 1.752-5.802.232-11.559-4.991-15.036-4.086-5.445 5.115-12.223 8.09-5.308.398 4.828 4.509 5.325 6.938 1.551 6.265-3.826 8.6 5.515 3.49 8.317-2.59 3.769-5.388 8.022-6.262 12.332-1.37 1.538-3.068 11.743-1.063 5.135 1.36-4.583 2.59-8.785 5.218-12.78 1.936-4.14 5.94-5.673 6.617-10.423-.083-5.713-8.415-6.031-11.12-1.754-3.128 1.413-1.71-6.889-6.282-6.656-6.844-2.446-11.255 7.637-5.783 11.891 3.777 1.997 5.341 7.462 3.968 9.312-1.823-.496-3.388-3.31-5.775-2.9-3.832-.774-8.662-.332-11.85 2.635-2.062.2-4.578-4.883-6.772-6.431-3.335-3.855-9.411-5.694-10.388-11.211-1.958-5.02 4.908-6.387 5.237-1.171 2.385 4.07 8.511-2.952 9.39 3.315-2.27 4.559 2.045 7.811 3.802 10.567 4.222 4.135-2.135-3.676-2.797-5.046-1.852-2.79 1.732-8.669-2.537-9.462-3.496-1.027-7.048 2.638-7.999-2.718-2.824-4.003-7.523-.562-6.96 3.673zm27.001 35.591l.006-.003zM57.63 188.307c-.16-.535.3.235 0 0zm77.899 57.426h-.014zm.144-.044l-.116.08zm-.895-.537c-.069-.284.538-.102 0 0zm.202-.088c-.096.504-.385-.16 0 0zm-.014.16l-.14.061zm.028.16l.045-.056zm0 .058l.072-.073zm-.086-.058l.13-.12zm-.029-.029c.003-.452 1.077-.06 0 0zm.014-.363c-.416.233.42-.29 0 0zm-.115.029l.17-.102zm0-.044l.029-.014zm.101-.087l-.102.066zm4.45 15.588v-.058zm.028-.204c-.384.002.17-.268 0 0zm-3.871-29.344l-.029-.015zm.086.072l.068-.126zm7.86 7.365c.691-.06.135-.105 0 0zm.332.102l-.302.383zm-.116.581l-.029.015zm.015.029l-.04.06zm-.044.087h-.043zm-1.675 7.511l-.138.058zm.765 1.772c-.402-.28.504-.127 0 0zm-.101-.116l.07-.057zm-7.859-9.239c.06.349-.3-.045 0 0zm-.159.058l-.029-.015zm-.578-.262l.044-.18zm-.072-.261c-.138-.283.608-.085 0 0zm.202-.291l-.158.116zm1.69-16.009l-.029-.014zm.102.102l.068-.14zm8.451 8.106l.122-.093zm.13-.276l-.148.182zm-.144.654c-.139-.586.518.09 0 0zm.231.073l.205.23zm.534.595l-.163.12zm-.014.639l.079.016zm.115.102l-.028-.029zm-.491-.436l.198-.154zm.275.465l.1.016zm.202.392c-.385-.457.979-.08 0 0zm.116-1.06l.105-.054zm-1.821-59.024c.01.437-.239-.261 0 0zm-1.416.625l-.014-.145zm0 .567c-.352-.478.583-.104 0 0zm1.33 46.007c.175.365-.64.048 0 0zm-10.027-10.619c.051.356-.286-.054 0 0zm-.173.029l-.029-.015zm-1.864-1.831c-.168-.374.355-.237 0 0zm.015.262c-.186-.477.58-.396 0 0zm-.044-.567l.12-.13zm-25.86-18.26v-.029zm.072-.131l-.119-.023zm-1.3-.581l.067.047zm-6.862 1.975l.014-.043zm.13-.203c-.125.228-.27-.329 0 0zm-2.052 3.007l-.12-.023zm-5.547 2.615c1.222-.41-.32.602 0 0zm-.708.349l-.275.087zm-1.618-.974c.02-.316.801.091 0 0zm-22.697 5.375c1.493.21-.553.303 0 0zm-1.69-6.798v-.029zm.058-.116l-.124-.055zm-2.297-4.809v-.029zm.057-.116l-.137-.044zm-1.3-.596l.067.066zm-.939-1.278c.527.493-.565.255 0 0zm.65 2.557c-.03.311-.13-.239 0 0zm33.951-4.141v-.029zm.072-.13l-.132-.024zm-1.445.624l-.057-.218zm.188 1.729l.101.04zm.593-3.486l-.072-.054zm-.16-.335c.429.096-.1.4 0 0zm.087.552v.137zM97 174.448l.043-.043zm.173-.116c-.252-.317.365.053 0 0zm10.344-19.786v-.189zm.015-.959c.491.614-.638.19 0 0zm-1.488 1.482c.005-.541.225.265 0 0zm-.203 1.99c.145-.28.145.28 0 0zm.116.146l-.026.073zm.173.769c-.102.455-.324-.23 0 0zm-.231-1.249c.447.514-.268.083 0 0zm-19.46 1.075l.068.06zm1.141.872l.03-.044zm.16-.189c-.148.239-.248-.362 0 0zm-.666-.843c-.003.34-.362-.098 0 0zm-7.165-9.065l.1.073zm-.231-.174c-.283.35-.152-.581 0 0zm-.362 1.496l.111.095z"/>
    <path d="M93.661 232.31c-1.007 4.247 2.657 9.423 7.266 8.647 5.274.417 9.752-5.906 6.91-10.575-2.66-2.525-1.906-6.092 1.573-7.19 3.84-1.727 2.457-7.548-1.765-4.964-.521-2.474-4.896-3.576-5.218-.645 2.43-4.596 4.404 4.418 7.256.94 2.63.476-.334 4.622-2.217 4.137-2.826 1.915-4.48 5.614-.924 7.682 2.536 4.28-1.536 9.896-6.379 8.966-5.08-.385-6.886-7.596-3.159-10.726 2.77-1.93 6.632-3.585 7.156-7.397-1.262-1.611-2.323 3.617-4.265 4.124-2.742 1.732-6.33 3.071-6.234 7.001zm3.323-3.53l-.04.099zm-1.286-.64l-.086.117zm-.303.363c.3.438-.709-.026 0 0zM146.061 233.617h.029c0-.029.014-.058.014-.073-.014.044-.029.073-.043.073zm-5.143-4.794c.043-.058.072-.102.072-.131-.014.015-.029.015-.043.029zm-.058-2.382c.014-.015.029-.015.058-.015-.029 0-.044.015-.058.015zm5.605 6.784c.029-.015.044.116.029.174.015-.043.044-.072.044-.116zM141.64 206.059c-1.148-1.132-1.505-2.877-2.843-3.85-1.008-.948-1.908-2.065-2.384-3.38-1.225-1.105-2.11-2.583-3.51-3.487-.026-1.18-2.08-1.54-1.733-.083.49.995 1.576 1.543 2.19 2.47 1.48 1.722 2.541 3.8 4.309 5.264 1.078.981 2.267 1.878 3.091 3.099-.267.763 1.123.756.88-.033zm-8.769-9.268l-.029-.015zm.072.087c-.058-.285.35.081 0 0zM131.426 182.903c.935 1.27 2.159 2.349 2.762 3.843 1.287 1.668 2.584 3.447 4.453 4.501.535.527 1.068 1.534 1.804 1.566 0-1.005-1.066-1.428-1.336-2.369-.267-.97-1.227-1.168-1.846-1.83-.72-.552-.726-1.522-1.203-2.16-.925-1.093-1.799-2.246-2.901-3.165-.384-.514-.663-1.776-1.362-.772-.127.126-.25.256-.371.386zm1.777 1.714c.037.282-.235-.028 0 0zm-.173.029l-.029-.014zm7.628 7.83l.014-.014zM134.619 176.206c-.253.23.239.458.265.61.412-.095.282.377.49.562.237.254.56.417.766.704.6.673 1.045 1.491 1.77 2.048.061.408.55.395.843.544.491.338.985.691 1.38 1.144-.143.445.678.533.604.055.03-.434-.406-.667-.584-1.012.07-.317-.303-.636-.35-.547.149-.355-.213-.595-.5-.7-.38-.275-.863-.557-.935-1.067.127-.46-.254-.72-.583-.946-.24-.429-.601-.8-1.06-.993-.28.06.023-.47-.327-.285-.281-.028-.483-.296-.677-.478-.166-.314-.58-.553-.798-.146-.109.118-.417.476-.304.507zm1.141.93c.006.173-.186-.054 0 0z"/>
  </g>
</svg>
