<svg width="130" height="36" fill="none" xmlns="http://www.w3.org/2000/svg">
  <path d="M50.976 23h-7.769V11.661h7.769v1.751h-5.78v2.941h5.661v1.751h-5.661v3.145h5.78V23zM52.407 23.204v-1.768c.658 0 1.15-.255 1.48-.765.328-.521.583-1.581.764-3.179l.663-5.831h7.702V23h-1.99v-9.588H57.1l-.475 4.216c-.137 1.167-.33 2.13-.579 2.89-.238.76-.55 1.332-.934 1.717-.374.374-.771.629-1.19.765-.408.136-.913.204-1.514.204zM65.544 11.661h1.989v4.233h2.992c1.144 0 2.045.346 2.703 1.037.668.68 1.003 1.519 1.003 2.516 0 1.009-.335 1.853-1.003 2.533-.658.68-1.559 1.02-2.703 1.02h-4.981V11.661zm4.709 5.984h-2.72v3.604h2.72c.566 0 1.031-.164 1.394-.493.362-.329.544-.765.544-1.309 0-.544-.182-.98-.544-1.309-.363-.329-.828-.493-1.394-.493zM92.29 11.661h1.99V23H80.493V11.661h1.989v9.588h3.91v-9.588h1.989v9.588h3.91v-9.588zM104.585 23h-7.77V11.661h7.77v1.751h-5.78v2.941h5.661v1.751h-5.661v3.145h5.78V23zM108.668 23h-1.921V11.661h1.989v7.871l5.797-7.871h2.04V23h-1.989v-8.092L108.668 23zm5.967-13.413c-.736.997-1.728 1.496-2.975 1.496-1.235 0-2.232-.499-2.992-1.496l.816-.68c.544.748 1.27 1.122 2.176 1.122.907 0 1.627-.374 2.159-1.122l.816.68zM129.065 23h-2.38l-3.179-4.437L120.327 23h-2.38l4.25-5.814-3.995-5.525h2.38l2.924 4.165 2.907-4.165h2.397l-3.978 5.508L129.065 23z" fill="#FF0633"/>
  <rect x="1" y="1" width="34" height="34" rx="17" fill="#fff"/>
  <path fill-rule="evenodd" clip-rule="evenodd" d="M18.933 15.634c.046.046.16.148.387.262.251.137.924.296 1.06.33.011 0 .011 0 .023-.01.011 0 .011-.012.011-.012-.011-.103-.034-.354.046-.41.091-.069 1.071-1.026 1.698-1.858.638-.843 1.014-2.062 1.72-1.926.525.114.33-.991-.262-1.299-.877-.467-1.732 1.31-2.153 1.88-.866 1.186-1.835 2.44-2.53 3.009l-.011.011c0 .011.011.011.011.023zm3.225-3.35c.08.057.182.045.24-.023.056-.08.045-.182-.035-.24-.08-.056-.182-.045-.24.035a.155.155 0 00.035.228zm-1.117 1.47c.08.057.183.045.24-.023.056-.08.045-.182-.035-.24a.168.168 0 00-.24.035c-.056.068-.033.17.035.228zm-1.117 1.47c.08.057.183.045.24-.023.056-.08.045-.182-.035-.24a.168.168 0 00-.239.035c-.057.068-.034.17.034.228zM18.74 16.01c.261.25.99.479 1.549.49 0 0 .558.923 1.481 1.607 0 0-1.63 4.444-5.332 7.02 0 0-3.18-2.155-2.473-2.838.706-.673 4.774-6.279 4.774-6.279zm-2.462 8.5c.65-.66 3.156-3.327 4.718-6.745 0-.011.01-.011.022-.011.012 0 .012.01.012.022-.32.98-1.607 4.501-4.73 6.758-.01.011-.022.011-.033 0 0-.012 0-.023.01-.023zm-1.88-1.788a.22.22 0 00.307-.046.216.216 0 00-.045-.296c-.091-.08-.228-.057-.308.034a.229.229 0 00.046.308z" fill="#FF0633"/>
  <path fill-rule="evenodd" clip-rule="evenodd" d="M8.301 25.354h19.03s-9.754-2.017-19.03 0z" fill="#FF0633"/>
  <rect x="1" y="1" width="34" height="34" rx="17" stroke="#FF0633" stroke-width="2"/>
</svg>
