<svg width="36" height="36" fill="none" xmlns="http://www.w3.org/2000/svg">
  <rect x="1" y="1" width="34" height="34" rx="17" fill="#fff"/>
  <path fill-rule="evenodd" clip-rule="evenodd" d="M18.933 15.634c.046.046.16.148.387.262.251.137.924.296 1.06.33.011 0 .011 0 .023-.01.011 0 .011-.012.011-.012-.011-.103-.034-.354.046-.41.091-.069 1.071-1.026 1.698-1.858.638-.843 1.014-2.062 1.72-1.926.525.114.33-.991-.262-1.299-.877-.467-1.732 1.31-2.153 1.88-.866 1.186-1.835 2.44-2.53 3.009l-.011.011c0 .011.011.011.011.023zm3.225-3.35c.08.057.182.045.24-.023.056-.08.045-.182-.035-.24-.08-.056-.182-.045-.24.035a.155.155 0 00.035.228zm-1.117 1.47c.08.057.183.045.24-.023.056-.08.045-.182-.035-.24a.168.168 0 00-.24.035c-.056.068-.033.17.035.228zm-1.117 1.47c.08.057.183.045.24-.023.056-.08.045-.182-.035-.24a.168.168 0 00-.239.035c-.057.068-.034.17.034.228zM18.74 16.01c.261.25.99.479 1.549.49 0 0 .558.923 1.481 1.607 0 0-1.63 4.444-5.332 7.02 0 0-3.18-2.155-2.473-2.838.706-.673 4.774-6.279 4.774-6.279zm-2.462 8.5c.65-.66 3.156-3.327 4.718-6.745 0-.011.01-.011.022-.011.012 0 .012.01.012.022-.32.98-1.607 4.501-4.73 6.758-.01.011-.022.011-.033 0 0-.012 0-.023.01-.023zm-1.88-1.788a.22.22 0 00.307-.046.216.216 0 00-.045-.296c-.091-.08-.228-.057-.308.034a.229.229 0 00.046.308z" fill="#FF0633"/>
  <path fill-rule="evenodd" clip-rule="evenodd" d="M8.301 25.354h19.03s-9.754-2.017-19.03 0z" fill="#FF0633"/>
  <rect x="1" y="1" width="34" height="34" rx="17" stroke="#FF0633" stroke-width="2"/>
</svg>
